<?xml version="1.0" encoding="iso-8859-1"?>
<!-- Uploaded to: SVG Repo, www.svgrepo.com, Generator: SVG Repo Mixer Tools -->
<svg fill="#000000" version="1.1" id="Layer_1" xmlns="http://www.w3.org/2000/svg" xmlns:xlink="http://www.w3.org/1999/xlink" 
	 viewBox="0 0 512 512" xml:space="preserve">
<g>
	<g>
		<polygon points="137.238,0 137.238,335.058 152.675,335.058 152.675,15.437 495.915,15.437 495.915,359.275 176.294,359.275 
			176.294,374.712 511.352,374.712 511.352,0 		"/>
	</g>
</g>
<g>
	<g>
		<path d="M144.359,343.307c-13.061,0-23.687,10.627-23.687,23.687s10.626,23.687,23.687,23.687s23.687-10.626,23.687-23.687
			C168.046,353.934,157.42,343.307,144.359,343.307z M144.358,375.244c-4.549,0-8.25-3.701-8.25-8.25
			c0.001-4.549,3.702-8.25,8.25-8.25c4.549,0,8.25,3.701,8.25,8.25S148.907,375.244,144.358,375.244z"/>
	</g>
</g>
<g>
	<g>
		<rect x="89.154" y="462.597" width="87.477" height="15.437"/>
	</g>
</g>
<g>
	<g>
		<path d="M248.67,382.329v48.37H16.085V151.802h112.176v-15.437H16.085V87.995h112.176V72.558H0.648V512h263.459V382.329H248.67z
			 M248.67,496.563H16.085v-50.428H248.67V496.563z"/>
	</g>
</g>
<g>
	<g>
		<rect x="89.154" y="104.457" width="39.107" height="15.437"/>
	</g>
</g>
<g>
	<g>
		<polygon points="47.989,359.688 47.989,327.784 111.795,327.784 111.795,280.444 79.892,280.444 79.892,207.375 32.552,207.375 
			32.552,222.812 64.455,222.812 64.455,295.881 96.358,295.881 96.358,312.347 32.552,312.347 32.552,375.125 112.824,375.125 
			112.824,359.688 		"/>
	</g>
</g>
<g>
	<g>
		<path d="M168.576,31.936v159.147h310.841V31.936H168.576z M184.013,47.373h32.754v16.952h-32.754V47.373z M184.013,79.762h48.191
			v8.233h-48.191V79.762z M391.721,175.646H184.013v-40.31h96.561v-15.437h-96.561v-16.466h63.628V64.325h-15.437V47.373h183.186
			v8.719H287.778v15.437h16.466v8.31h-15.91v79.308h103.387V175.646z M432.043,95.277v48.434H303.77V95.277H432.043z
			 M319.681,79.839v-8.31h40.136v8.31H319.681z M375.254,79.839v-8.31h40.136v8.31H375.254z M463.979,175.646h-56.822v-16.498
			h40.324V79.839h-16.654v-8.31h16.466V56.092h-16.466v-8.719h33.152V175.646z"/>
	</g>
</g>
<g>
	<g>
		<rect x="184.864" y="215.604" width="95.71" height="15.437"/>
	</g>
</g>
<g>
	<g>
		<rect x="184.864" y="248.537" width="31.903" height="15.437"/>
	</g>
</g>
<g>
	<g>
		<rect x="184.864" y="312.343" width="15.437" height="15.437"/>
	</g>
</g>
<g>
	<g>
		<rect x="216.767" y="312.343" width="15.437" height="15.437"/>
	</g>
</g>
<g>
	<g>
		<rect x="248.67" y="312.343" width="15.437" height="15.437"/>
	</g>
</g>
<g>
	<g>
		<rect x="280.574" y="312.343" width="16.466" height="15.437"/>
	</g>
</g>
<g>
	<g>
		<rect x="184.864" y="280.44" width="112.176" height="15.437"/>
	</g>
</g>
<g>
	<g>
		<path d="M328.253,279.438v47.372h135.196v-47.372H328.253z M448.011,311.372H343.69v-16.498h104.322V311.372z"/>
	</g>
</g>
<g>
	<g>
		<path d="M328.253,215.565v47.372h135.196v-47.372H328.253z M448.011,247.5H343.69v-16.498h104.322V247.5z"/>
	</g>
</g>
</svg>