<?xml version="1.0" ?>
<!-- Uploaded to: SVG Repo, www.svgrepo.com, Generator: SVG Repo Mixer Tools -->
<svg width="800px" height="800px" viewBox="0 0 512 512" id="Layer_1" version="1.1" xml:space="preserve" xmlns="http://www.w3.org/2000/svg" xmlns:xlink="http://www.w3.org/1999/xlink">
<style type="text/css">
	.st0{fill:#232020;}
</style>
<g>
<path class="st0" d="M412.4,269.4c6-9,9.4-19.7,9.4-31.2v-50.8c0-25.6-20.8-46.4-46.4-46.4h-47.6c-25.6,0-46.4,20.8-46.4,46.4v50.8   c0,11.5,3.5,22.3,9.4,31.2c-13.6,6.7-25.2,16.7-33.7,29c0.6-3.5,0.9-7.1,0.9-10.7v-59.2c0-29.2-23.7-52.9-52.9-52.9h-55.5   c-29.2,0-52.9,23.7-52.9,52.9v59.2c0,13.7,4.3,26.4,11.6,36.9c-34.9,16.5-57.8,52.1-57.8,91.3v54l67.7,23.1l0.7,0.1   c19.4,2.3,39,3.4,58.5,3.4s39.1-1.1,58.5-3.4l0.7-0.1l67.7-23.1v-54c0,0,0-0.1,0-0.1c15.7,1.7,31.5,2.6,47.3,2.6   c16.8,0,33.6-1,50.3-2.9l0.7-0.1l58.8-20.1v-47.1C461.5,314.5,442.1,284,412.4,269.4z M295.4,187.4c0-17.9,14.5-32.4,32.4-32.4   h47.6c17.9,0,32.4,14.5,32.4,32.4v25.5c-14.2-4.6-27.3-21.6-29.9-28l-2.9-7.2l-3.5,6.9c-0.2,0.3-15.9,29.9-76.1,21.3V187.4z    M295.4,213c7.6,1,14.6,1.5,21,1.5c34.8,0,51.3-13.9,57.9-21.7c5.9,9.5,18.9,23.7,33.6,27.4v18c0,13.9-6.7,26.3-17.1,34.1l-0.4,0.3   l0,0c-0.4,0.3-0.8,0.5-1.1,0.8l-0.6,0.3l-0.1,0.1c-1.5,1-3.1,1.9-4.8,2.7l-0.2,0.1c-0.1,0.1-0.3,0.1-0.4,0.2   c-0.5,0.2-0.9,0.4-1.4,0.6c-0.1,0-0.1,0.1-0.2,0.1c-1,0.4-2.1,0.8-3.2,1.2c-0.1,0-0.1,0.1-0.2,0.1l-0.3,0.1c-0.1,0-0.1,0-0.2,0.1   c-0.3,0.1-0.5,0.1-0.8,0.2l-0.4,0.1c0,0-0.1,0-0.1,0c-0.2,0-0.3,0.1-0.5,0.1c-0.1,0-0.2,0-0.3,0.1l-0.6,0.1c0,0-0.1,0-0.1,0   c-0.3,0.1-0.7,0.2-1,0.2c-0.1,0-0.2,0-0.3,0.1l-0.2,0c-2.7,0.6-5.6,0.9-8.5,0.9H338c-1.2,0-2.4-0.1-3.6-0.2   c-0.7-0.1-1.3-0.1-1.9-0.2c-1-0.1-2-0.3-3-0.5l-0.2,0c-0.1,0-0.1,0-0.2,0c-0.4-0.1-0.8-0.2-1.2-0.3l-0.5-0.1   c-0.2,0-0.4-0.1-0.6-0.1c-1.9-0.5-3.7-1.1-5.4-1.9c-0.1,0-0.1,0-0.2-0.1c-0.6-0.3-1.2-0.5-1.8-0.8c0,0-0.1,0-0.1-0.1   c-14.2-6.9-24.1-21.5-24.1-38.3V213z M364.6,302.8l-2.4-6.8l-0.4-1.2h3.4c4.1,0,8.1-0.4,11.9-1.3c0.5-0.1,1-0.2,1.4-0.3   c0.4-0.1,0.7-0.2,1.1-0.3c0.3-0.1,0.7-0.2,1.1-0.3c0,0,0.1,0,0.1,0c0.6-0.2,1.2-0.3,1.8-0.5c0,0,0,0,0.1,0c0.1,0,0.1,0,0.2-0.1   c-0.8,1.9-1.7,3.8-2.7,5.7C377.3,298.7,370,301.2,364.6,302.8z M374.8,306.9c-2.9,4.6-6.3,9-10,12.8l-2.3-7.8   c0.8-0.7,1.4-1.3,1.9-1.8C367.4,309.3,371.3,308.1,374.8,306.9z M364.1,329.7C364.2,329.7,364.2,329.7,364.1,329.7   c0.5-0.4,0.8-0.7,1.2-1l1.8-1.5l0-0.1c6-5.5,11.3-12.5,15.6-19.7l12,15.8c-3.6,4.6-15.1,16.7-39.5,24.5v-12.4   c0.1-0.1,0.2-0.1,0.4-0.2c0.3-0.1,0.6-0.3,0.9-0.5c0.3-0.1,0.6-0.3,0.8-0.4c0.3-0.2,0.6-0.4,1-0.5c0.3-0.1,0.5-0.3,0.8-0.4   c0.4-0.2,0.8-0.5,1.2-0.8c0.2-0.1,0.3-0.2,0.5-0.3C361.8,331.5,363,330.6,364.1,329.7z M383.8,305.6c3.4-6,6.2-12.1,8.2-17.5   c0.3-0.1,0.5-0.3,0.7-0.4c0.5-0.3,1-0.6,1.5-0.9c0.2-0.1,0.4-0.3,0.6-0.4c0.7-0.4,1.3-0.8,1.9-1.2c0.1-0.1,0.3-0.2,0.4-0.3   c0.7-0.4,1.3-0.9,1.9-1.4c0.1-0.1,0.2-0.2,0.3-0.3c0.4-0.3,0.9-0.7,1.4-1.1c2,6.9,4.5,16.6,5.2,24.4L383.8,305.6z M358.4,306.2   c-0.5,0.4-1,0.9-1.8,1.3c-0.4,0.2-0.8,0.4-1.2,0.6c-0.1,0.1-0.2,0.1-0.4,0.1c-0.3,0.1-0.6,0.2-0.8,0.3c-0.2,0-0.3,0.1-0.5,0.1   c-0.3,0.1-0.5,0.1-0.8,0.2c-0.2,0-0.3,0-0.5,0c-0.3,0-0.5,0-0.8,0.1c-0.2,0-0.3,0-0.5,0c-0.3,0-0.5,0-0.8-0.1c-0.2,0-0.3,0-0.5-0.1   c-0.3,0-0.5-0.1-0.8-0.2c-0.2,0-0.3-0.1-0.5-0.1c-0.3-0.1-0.5-0.2-0.8-0.3c-0.2-0.1-0.3-0.1-0.5-0.2c-0.2-0.1-0.5-0.2-0.7-0.4   l-0.3-0.1c-0.7-0.4-1.3-0.9-1.8-1.3l4-11.3h5.7l1,2.7L358.4,306.2z M338.5,302.8c-5.3-1.5-12.5-4-15.4-5.1c-1-1.9-1.9-3.8-2.7-5.7   c0,0,0.1,0,0.1,0c0.6,0.2,1.3,0.4,2.1,0.6c0.2,0.1,0.4,0.1,0.5,0.1c0.5,0.1,0.9,0.2,1.4,0.4c0.5,0.1,1,0.3,1.6,0.4   c2,0.4,4,0.8,6.1,1c0,0,0,0,0,0c1.9,0.2,3.8,0.3,5.7,0.3h3.3L338.5,302.8z M340.7,311.9l-2.3,7.8c-3.7-3.8-7-8.2-10-12.7   c3.5,1.2,7.4,2.4,10.4,3.1C339.3,310.6,339.9,311.2,340.7,311.9z M319.5,305.6l-22.1,1.1c0.7-7.8,3.2-17.5,5.2-24.4   c0.4,0.3,0.8,0.7,1.3,1c0.2,0.2,0.5,0.4,0.7,0.6c0.6,0.4,1.1,0.8,1.6,1.1c0.2,0.2,0.4,0.3,0.6,0.4c0.5,0.4,1.1,0.7,1.7,1.1   c0.2,0.1,0.4,0.3,0.7,0.4c0.5,0.3,1,0.6,1.5,0.8c0.2,0.1,0.4,0.2,0.7,0.4c1.6,4.3,3.6,9,6.1,13.7c0.1,0.2,0.2,0.4,0.3,0.6   C318.3,303.4,318.9,304.5,319.5,305.6z M110.7,228.5c0-21.5,17.5-38.9,38.9-38.9h55.5c21.5,0,38.9,17.5,38.9,38.9v22   c-36.3,5.3-58.6-1.2-71.2-8c-14.2-7.6-19.2-17-19.3-17.1l-3.5-6.9l-2.9,7.2c-3.5,8.8-19.5,28.8-36.6,33.4V228.5z M110.7,266.4   c17.8-3.9,33.5-21.4,40.2-32.6c3.2,4,9,9.6,18.1,14.6c13.4,7.3,37.1,14.6,75,9.2v30.1c0,27.1-21.4,49.4-48.2,50.8   c-0.9,0-1.7,0.1-2.6,0.1h-31.7c-0.9,0-1.7,0-2.6-0.1c-26.8-1.4-48.2-23.6-48.2-50.8V266.4z M192.2,363.7l-3.7-10.4l-0.2-0.7h5   c0.1,0,0.3,0,0.4,0c0.9,0,1.9,0,2.8-0.1c0.3,0,0.5,0,0.8-0.1c0.8-0.1,1.7-0.1,2.5-0.2c0.2,0,0.3,0,0.5-0.1c1-0.1,1.9-0.2,2.9-0.4   c0,0,0,0,0,0c4.1-0.6,8.1-1.6,11.9-3c-1.2,2.8-2.6,5.8-4.1,8.7C207.8,358.7,198.7,361.9,192.2,363.7z M205.8,366.7   c-3.8,6.2-8.3,12.1-13.3,17l-3.1-10.4c1.1-0.9,1.9-1.7,2.5-2.4C195.9,370,201.3,368.3,205.8,366.7z M189.6,395.5   c0.1-0.1,0.3-0.2,0.4-0.3c0.5-0.4,1-0.8,1.5-1.2c0.2-0.1,0.4-0.3,0.6-0.4c0.3-0.3,0.6-0.5,0.9-0.8l1.8-1.5l0-0.1   c7.3-6.6,13.6-15.1,18.8-23.8l14.8,19.4c-4,5.2-17.6,20.1-47.4,29.3v-15.6c0.3-0.1,0.5-0.3,0.8-0.4c0.3-0.2,0.7-0.3,1-0.5   c0.3-0.2,0.7-0.4,1-0.5c0.3-0.2,0.7-0.4,1-0.6c0.3-0.2,0.6-0.4,1-0.6c0.4-0.2,0.8-0.5,1.2-0.7c0.3-0.2,0.5-0.3,0.8-0.5   C188.3,396.4,188.9,396,189.6,395.5z M224.2,344.7c3.7-2,7.2-4.4,10.5-7.2c2.4,8.3,5.7,20.9,6.5,30.7l-27.4-1.4   C218.3,359.3,221.8,351.5,224.2,344.7z M186,367.1c-0.6,0.6-1.4,1.3-2.4,1.9c-1.9,1.1-4,1.7-6.1,1.7c-0.5,0-1,0-1.5-0.1   c-0.2,0-0.3-0.1-0.5-0.1c-0.3-0.1-0.7-0.1-1-0.2c-0.2-0.1-0.4-0.1-0.6-0.2c-0.3-0.1-0.6-0.2-0.9-0.3c-0.2-0.1-0.4-0.2-0.6-0.3   c-0.3-0.1-0.6-0.3-0.8-0.4l-0.3-0.2c-1-0.6-1.9-1.3-2.5-1.9l5.1-14.6h7l1,2.9L186,367.1z M162.5,363.7c-6.4-1.8-15.3-4.9-18.7-6.1   c-1.5-3-2.9-5.9-4.1-8.8c3.9,1.4,7.9,2.4,12,3c0,0,0,0,0,0c1,0.1,1.9,0.3,2.9,0.4c0.2,0,0.3,0,0.5,0.1c0.8,0.1,1.7,0.1,2.5,0.2   c0.3,0,0.5,0,0.8,0.1c0.9,0,1.9,0.1,2.8,0.1c0.1,0,0.3,0,0.4,0h4.9L162.5,363.7z M165.4,373.4l-3.1,10.4c-5-5-9.4-10.9-13.3-17   c4.5,1.5,9.8,3.2,13.7,4.2C163.4,371.7,164.3,372.5,165.4,373.4z M140.9,366.8l-27.4,1.4c0.8-9.8,4.1-22.4,6.5-30.7   c3.3,2.8,6.8,5.1,10.5,7.2c1.9,5.3,4.4,11.1,7.4,16.9c0.1,0.2,0.2,0.4,0.3,0.6C139.1,363.8,140,365.3,140.9,366.8z M173.9,482.5   c-17.6-0.1-35.2-1.2-52.7-3.2l-56.8-19.4v-44c0-33.1,19-63.3,48.1-77.8c-2.8,9.8-6.2,23.7-6.3,33.8l0,3.7l20.9-1.1l-9.2,12.1l1.2,2   c0.6,0.9,13.9,22.9,54.7,34.9V482.5z M173.9,416.3c-29.8-9.2-43.4-24.1-47.4-29.3l14.8-19.4c5.1,8.7,11.5,17.2,18.8,23.8l0,0.1   l1.8,1.5c0.4,0.3,0.8,0.6,1.1,0.9c0.1,0.1,0.1,0.1,0.2,0.2c1.3,1.1,2.7,2.1,4,3c0.1,0.1,0.2,0.1,0.3,0.2c0.5,0.4,1.1,0.7,1.6,1   c0.3,0.2,0.5,0.3,0.8,0.5c0.4,0.2,0.8,0.5,1.2,0.7c0.3,0.2,0.6,0.3,0.9,0.5c0.4,0.2,0.8,0.4,1.2,0.6c0.2,0.1,0.5,0.2,0.7,0.3V416.3   z M179.7,393.5c-0.7,0.4-1.5,0.8-2.3,1.1c-0.7-0.3-1.5-0.7-2.2-1.1c-0.2-0.1-0.3-0.2-0.5-0.3c-0.6-0.3-1.1-0.6-1.7-1   c-0.2-0.1-0.4-0.3-0.7-0.4c-0.5-0.3-1-0.6-1.5-1c-0.2-0.2-0.5-0.3-0.7-0.5c-0.5-0.3-1-0.7-1.5-1.1c-0.2-0.1-0.4-0.3-0.5-0.4   l3.6-12.1c0.1,0,0.2,0.1,0.3,0.1c0.3,0.1,0.6,0.2,0.8,0.2c0.2,0,0.3,0.1,0.5,0.1c0.3,0.1,0.6,0.1,0.9,0.2c0.1,0,0.3,0,0.4,0.1   c0.4,0.1,0.8,0.1,1.1,0.1c0.1,0,0.2,0,0.2,0c0.5,0,0.9,0.1,1.4,0.1c0.5,0,1,0,1.4-0.1c0.1,0,0.1,0,0.2,0c0.4,0,0.8-0.1,1.2-0.1   c0.1,0,0.2,0,0.3-0.1c0.3-0.1,0.7-0.1,1-0.2c0.2,0,0.3-0.1,0.5-0.1c0.3-0.1,0.6-0.2,0.9-0.2c0.1,0,0.2,0,0.3-0.1l3.6,12.1   c-0.1,0.1-0.2,0.1-0.3,0.2c-0.6,0.5-1.2,0.9-1.8,1.3c-0.2,0.1-0.4,0.3-0.5,0.4c-0.6,0.4-1.1,0.7-1.7,1.1c-0.2,0.1-0.4,0.2-0.5,0.3   c-0.6,0.4-1.2,0.7-1.8,1C179.9,393.4,179.8,393.4,179.7,393.5z M290.4,459.9l-56.8,19.4c-17.5,2-35.1,3.1-52.7,3.2v-58.9   c40.8-12,54.2-34,54.7-34.9l1.2-2l-9.2-12.1l20.9,1.1l0-3.7c-0.1-10.1-3.5-24.1-6.3-33.8c1,0.5,2,1,3,1.6l1.2,0.7   c2.3,1.3,4.5,2.7,6.6,4.2c0,0,0.1,0,0.1,0.1c0.6,0.4,1.1,0.8,1.6,1.2c0.3,0.2,0.6,0.4,0.8,0.6c0.4,0.3,0.8,0.6,1.2,0.9   c0.5,0.4,0.9,0.7,1.4,1.1c0.2,0.2,0.5,0.4,0.7,0.6c16.1,13.5,27,32.5,30.3,53.6c0,0.3,0.1,0.6,0.1,1c0.1,0.6,0.2,1.1,0.2,1.7   c0.1,0.6,0.1,1.2,0.2,1.8c0.3,2.9,0.5,5.8,0.5,8.8V459.9z M348.1,404.3c-14.9-0.1-29.7-1-44.5-2.7l-0.3-0.1c0-0.3-0.1-0.6-0.1-0.9   c0-0.2-0.1-0.4-0.1-0.6c-3.8-24.1-16.4-46-35-61.6c-0.1-0.1-0.2-0.2-0.4-0.3c-0.8-0.6-1.6-1.3-2.4-1.9c-0.2-0.2-0.4-0.3-0.6-0.5   c-0.8-0.6-1.7-1.3-2.5-1.9c-0.5-0.3-0.9-0.7-1.4-1c-0.4-0.3-0.8-0.5-1.2-0.8c-0.6-0.4-1.2-0.8-1.8-1.2c0,0,0,0-0.1,0   c4.9-20.6,18.6-38,37.3-47.8c-2.3,8.3-4.8,19.2-4.9,27.4l0,3.7l17.4-0.9l-7.5,9.8l1.2,2c0.5,0.8,12,19.7,46.9,30.1V404.3z    M348.1,347.8c-24.5-7.7-35.9-19.9-39.5-24.5l12-15.8c4.3,7.2,9.5,14.2,15.6,19.7l0,0.1l1.8,1.5c1.6,1.3,3.1,2.5,4.7,3.5   c0.1,0,0.1,0.1,0.2,0.1c0.5,0.3,1,0.6,1.5,0.9c0.2,0.1,0.4,0.3,0.6,0.4c0.4,0.2,0.7,0.4,1.1,0.6c0.3,0.1,0.5,0.3,0.8,0.4   c0.3,0.2,0.7,0.3,1,0.5c0.1,0.1,0.2,0.1,0.3,0.2V347.8z M349.8,328.4C349.8,328.4,349.7,328.4,349.8,328.4c-0.7-0.4-1.2-0.7-1.8-1   c-0.1-0.1-0.2-0.1-0.3-0.2c-0.5-0.3-1-0.6-1.5-0.9c-0.1-0.1-0.3-0.2-0.4-0.3c-0.4-0.3-0.9-0.6-1.3-1c-0.1-0.1-0.2-0.1-0.3-0.2   l2.8-9.6c0,0,0,0,0.1,0c0.2,0.1,0.5,0.1,0.7,0.2c0.1,0,0.2,0.1,0.3,0.1c1.1,0.2,2.3,0.4,3.4,0.4c1.2,0,2.3-0.1,3.4-0.4   c0.1,0,0.3-0.1,0.4-0.1c0.2-0.1,0.5-0.1,0.7-0.2c0,0,0,0,0.1,0l2.8,9.6c0,0-0.1,0.1-0.1,0.1c-0.5,0.4-1,0.8-1.5,1.1   c-0.1,0.1-0.2,0.1-0.3,0.2c-0.5,0.4-1.1,0.7-1.6,1c-0.1,0-0.1,0.1-0.2,0.1c-1.2,0.7-2.4,1.4-3.7,1.9   C351,329,350.4,328.7,349.8,328.4z M447.5,385.2l-47.9,16.4c-14.8,1.7-29.6,2.6-44.5,2.7v-49.2c34.9-10.4,46.4-29.2,46.9-30.1   l1.2-2l-7.5-9.8l17.4,0.9l0-3.7c-0.1-8.2-2.6-19.1-4.9-27.4c23.9,12.6,39.3,37.6,39.3,65.1V385.2z"/>
<path class="st0" d="M150.4,149.8c6,2.6,12.3,4,18.9,4h0.7c0,0.5-0.1,1-0.3,1.5c-0.6,1.8-1.8,3.2-3.4,4l-25.7,13.2h28.9   c18.4,0,35.9-6.6,49.6-18.8h13.6c17.7,0,33.7-10,41.8-25.2c11.5,6.8,24.6,10.4,38.2,10.4h28.9L316,125.7c-1.6-0.8-2.9-2.3-3.4-4   c-0.2-0.5-0.3-1-0.3-1.5h0.7c6.6,0,13-1.3,18.9-4c17.2-7.5,28.3-24.5,28.3-43.2V62.7c0-26-21.2-47.2-47.2-47.2h-63.5   c-21.2,0-39.3,13.8-45.2,33.6h-35c-26,0-47.2,21.2-47.2,47.2v10.4C122.2,125.4,133.3,142.3,150.4,149.8z M249.5,29.5H313   c18.3,0,33.2,14.9,33.2,33.2V73c0,13.2-7.8,25.1-19.9,30.4c-4.2,1.8-8.6,2.8-13.3,2.8h-10.5l-2,3.8c-2.1,4.2-2.8,8.8-2,13.3   c-6.8-1.6-13.3-4.4-19.3-8.4c0,0,0-0.1,0-0.1c0.1-0.6,0.2-1.2,0.3-1.8c0-0.2,0.1-0.4,0.1-0.6c0.1-0.4,0.1-0.9,0.1-1.3   c0-0.2,0-0.4,0.1-0.7c0-0.4,0.1-0.9,0.1-1.3c0-0.2,0-0.4,0-0.6c0-0.6,0-1.3,0-1.9V96.2c0-26-21.2-47.2-47.2-47.2h-13.6   C224.5,37.3,236.1,29.5,249.5,29.5z M136.2,96.2c0-18.3,14.9-33.2,33.2-33.2h32.3h31.2c18.3,0,33.2,14.9,33.2,33.2v10.4   c0,3.2-0.5,6.3-1.3,9.3l0,0c-4.1,14-17.2,23.8-31.8,23.8h-19.2l-2,1.9c-7.9,7.5-17.5,12.7-27.9,15.2c0.8-4.5,0.1-9.1-2-13.3l-2-3.8   h-10.5c-4.6,0-9.1-0.9-13.3-2.8c-12.1-5.3-19.9-17.2-19.9-30.4V96.2z"/>
<path class="st0" d="M307.3,74.2c3,0,5.4-2.4,5.4-5.4c0-3-2.4-5.4-5.4-5.4s-5.4,2.4-5.4,5.4C301.9,71.8,304.3,74.2,307.3,74.2z"/>
<path class="st0" d="M281.6,74.2c3,0,5.4-2.4,5.4-5.4c0-3-2.4-5.4-5.4-5.4s-5.4,2.4-5.4,5.4C276.1,71.8,278.6,74.2,281.6,74.2z"/>
<path class="st0" d="M148.2,114.3c0.5-0.5,0.7-1.3,0.7-2.4v-8.6h11.1v8.6c0,1,0.2,1.8,0.7,2.4c0.5,0.5,1.1,0.8,1.9,0.8   c0.8,0,1.4-0.3,1.9-0.8c0.5-0.5,0.7-1.3,0.7-2.4V91.9c0-1.1-0.2-1.8-0.7-2.4c-0.5-0.5-1.1-0.8-1.9-0.8c-0.8,0-1.4,0.3-1.9,0.8   c-0.5,0.5-0.7,1.3-0.7,2.3v7.3H149v-7.3c0-1.1-0.2-1.8-0.7-2.4c-0.5-0.5-1.1-0.8-1.9-0.8c-0.8,0-1.4,0.3-1.9,0.8   c-0.5,0.5-0.7,1.3-0.7,2.3v20.1c0,1,0.2,1.8,0.7,2.4c0.5,0.5,1.1,0.8,1.9,0.8C147.1,115.1,147.8,114.8,148.2,114.3z"/>
<path class="st0" d="M174,114.6h14c0.8,0,1.4-0.2,1.8-0.6s0.6-0.9,0.6-1.5c0-0.6-0.2-1.1-0.6-1.5s-1-0.6-1.8-0.6h-12v-7.2h10.7   c0.8,0,1.4-0.2,1.8-0.5c0.4-0.4,0.6-0.8,0.6-1.4c0-0.6-0.2-1-0.6-1.4s-1-0.5-1.8-0.5H176v-6.3h11.6c0.8,0,1.4-0.2,1.8-0.5   c0.4-0.4,0.6-0.8,0.6-1.5c0-0.6-0.2-1.1-0.6-1.4s-1-0.5-1.8-0.5H174c-0.7,0-1.3,0.1-1.8,0.3c-0.5,0.2-0.8,0.6-1,1s-0.3,1.1-0.3,1.8   v19.2c0,1.1,0.2,1.9,0.7,2.4S172.9,114.6,174,114.6z"/>
<path class="st0" d="M197.6,114.6h12.5c0.8,0,1.5-0.2,1.9-0.6c0.4-0.4,0.7-0.9,0.7-1.5c0-0.6-0.2-1.1-0.7-1.5   c-0.4-0.4-1.1-0.6-1.9-0.6h-10.5V91.9c0-1.1-0.2-1.8-0.7-2.4c-0.5-0.5-1.1-0.8-1.9-0.8c-0.8,0-1.4,0.3-1.9,0.8   c-0.5,0.5-0.7,1.3-0.7,2.3v19.6c0,1.1,0.2,1.9,0.7,2.4S196.5,114.6,197.6,114.6z"/>
<path class="st0" d="M219.1,114.6h12.5c0.8,0,1.5-0.2,1.9-0.6c0.4-0.4,0.7-0.9,0.7-1.5c0-0.6-0.2-1.1-0.7-1.5s-1.1-0.6-1.9-0.6   h-10.5V91.9c0-1.1-0.2-1.8-0.7-2.4c-0.5-0.5-1.1-0.8-1.9-0.8c-0.8,0-1.4,0.3-1.9,0.8c-0.5,0.5-0.7,1.3-0.7,2.3v19.6   c0,1.1,0.2,1.9,0.7,2.4C217.2,114.4,218,114.6,219.1,114.6z"/>
<path class="st0" d="M237.8,111.4c1.1,1.2,2.4,2.1,3.9,2.7s3.4,1,5.4,1c2,0,3.8-0.3,5.3-0.9c1.6-0.6,2.9-1.5,3.9-2.7   c1.1-1.2,1.9-2.6,2.4-4.2c0.5-1.6,0.8-3.4,0.8-5.4c0-2.7-0.5-5-1.5-7c-1-2-2.4-3.5-4.3-4.6c-1.9-1.1-4.2-1.6-6.8-1.6   c-1.9,0-3.7,0.3-5.2,0.9c-1.5,0.6-2.8,1.5-3.9,2.6c-1.1,1.1-1.9,2.5-2.4,4.2c-0.6,1.6-0.8,3.4-0.8,5.4c0,1.9,0.3,3.7,0.8,5.3   S236.8,110.2,237.8,111.4z M240.4,98c0.4-1.2,0.9-2.1,1.5-2.8c0.6-0.7,1.4-1.3,2.3-1.7c0.9-0.4,1.8-0.6,2.9-0.6   c1.4,0,2.7,0.4,3.9,1.1s2,1.7,2.6,3.1c0.6,1.4,0.9,3,0.9,4.9c0,2-0.3,3.7-1,5.1c-0.7,1.4-1.5,2.4-2.6,3.1s-2.3,1-3.6,1   c-1,0-2-0.2-2.8-0.6c-0.9-0.4-1.6-1-2.3-1.7c-0.7-0.8-1.2-1.7-1.5-2.9c-0.4-1.2-0.5-2.5-0.5-3.9C239.9,100.4,240,99.1,240.4,98z"/>
</g>
</svg>