<svg width="2679" height="585" viewBox="0 0 2679 585" fill="none" xmlns="http://www.w3.org/2000/svg">
<path d="M211.62 547.06L380.84 377.84C386.213 372.453 391.077 366.582 395.37 360.3C395.7 359.82 396.04 359.35 396.37 358.87C396.81 358.21 397.22 357.53 397.64 356.87C398.36 355.74 399.08 354.62 399.75 353.48L399.96 353.12C413.703 329.668 419.283 302.321 415.825 275.36C412.367 248.398 400.067 223.345 380.85 204.12L211.62 34.91C188.486 12.405 157.422 -0.0869107 125.148 0.136867C92.8738 0.360644 61.9856 13.2822 39.1659 36.1058C16.3463 58.9294 3.43009 89.8198 3.21189 122.094C2.99368 154.368 15.491 185.43 38 208.56L77.5 248.1C82.0068 252.446 88.0395 254.849 94.3002 254.793C100.561 254.736 106.549 252.223 110.976 247.796C115.403 243.369 117.916 237.381 117.972 231.12C118.029 224.86 115.626 218.827 111.28 214.32L71.74 174.78C64.774 167.813 59.2484 159.543 55.4787 150.441C51.709 141.339 49.769 131.583 49.7695 121.731C49.77 111.88 51.7109 102.124 55.4814 93.0227C59.252 83.9209 64.7784 75.651 71.745 68.685C78.7116 61.7191 86.9821 56.1935 96.0842 52.4238C105.186 48.6541 114.942 46.7141 124.794 46.7145C134.645 46.715 144.401 48.6559 153.502 52.4265C162.604 56.197 170.874 61.7234 177.84 68.69L278.44 169.29C251.471 172.672 226.399 184.95 207.19 204.18L38 373.41C26.3404 384.753 17.0507 398.299 10.6705 413.262C4.29025 428.225 0.946638 444.306 0.833854 460.573C0.72107 476.839 3.84136 492.965 10.0135 508.015C16.1856 523.065 25.2866 536.739 36.7878 548.242C48.2889 559.745 61.9611 568.849 77.01 575.023C92.059 581.198 108.185 584.321 124.451 584.211C140.717 584.101 156.799 580.76 171.763 574.383C186.728 568.005 200.275 558.718 211.62 547.06ZM71.74 513.29C64.7705 506.325 59.2417 498.055 55.4696 488.952C51.6975 479.85 49.756 470.093 49.756 460.24C49.756 450.387 51.6975 440.63 55.4696 431.528C59.2417 422.425 64.7705 414.155 71.74 407.19L241 238C251.485 227.502 264.849 220.349 279.4 217.448C293.951 214.547 309.036 216.026 322.746 221.7C336.456 227.374 348.174 236.987 356.42 249.323C364.665 261.658 369.066 276.162 369.066 291C369.066 305.838 364.665 320.342 356.42 332.677C348.174 345.013 336.456 354.626 322.746 360.3C309.036 365.974 293.951 367.454 279.4 364.552C264.849 361.651 251.485 354.498 241 344C238.797 341.715 236.161 339.893 233.245 338.638C230.33 337.384 227.194 336.723 224.02 336.694C220.847 336.666 217.699 337.27 214.761 338.471C211.824 339.672 209.155 341.447 206.911 343.691C204.667 345.935 202.892 348.604 201.691 351.541C200.49 354.479 199.886 357.627 199.914 360.8C199.943 363.974 200.604 367.11 201.858 370.025C203.113 372.941 204.935 375.577 207.22 377.78C226.433 397.01 251.508 409.288 278.48 412.67L177.84 513.29C170.875 520.26 162.605 525.788 153.502 529.56C144.4 533.333 134.643 535.274 124.79 535.274C114.937 535.274 105.18 533.333 96.0776 529.56C86.9751 525.788 78.705 520.26 71.74 513.29Z" fill="white"/>
<path d="M617.3 426.75C589.613 426.75 566.37 420.603 547.57 408.31C528.77 396.017 514.607 378.987 505.08 357.22C495.553 335.46 490.79 310.353 490.79 281.9C490.79 253.447 495.553 228.337 505.08 206.57C514.6 184.81 528.763 167.78 547.57 155.48C566.377 143.18 589.62 137.02 617.3 137C649.613 137 675.847 145.37 696 162.11C716.153 178.85 729.82 201.253 737 229.32L714 234.92C708.08 211.587 697.04 193.077 680.88 179.39C664.72 165.703 643.527 158.86 617.3 158.86C594.5 158.86 575.54 164.077 560.42 174.51C545.3 184.943 533.903 199.44 526.23 218C518.557 236.547 514.66 257.86 514.54 281.94C514.28 306.02 517.983 327.297 525.65 345.77C533.317 364.243 544.81 378.73 560.13 389.23C575.463 399.73 594.52 404.977 617.3 404.97C643.56 404.97 664.773 398.08 680.94 384.3C697.107 370.52 708.147 352.043 714.06 328.87L737.06 334.47C729.84 362.537 716.173 384.943 696.06 401.69C675.947 418.437 649.693 426.79 617.3 426.75Z" fill="white"/>
<path d="M865.48 426.75C845.52 426.75 828.267 422.277 813.72 413.33C799.173 404.383 787.907 391.7 779.92 375.28C771.92 358.86 767.92 339.45 767.92 317.05C767.92 294.263 771.877 274.597 779.79 258.05C787.703 241.503 798.907 228.787 813.4 219.9C827.893 211.02 845.117 206.58 865.07 206.58C885.277 206.58 902.563 211.183 916.93 220.39C931.297 229.597 942.24 242.89 949.76 260.27C957.293 277.657 960.867 298.583 960.48 323.05H937.33V315.32C936.663 286.733 930.227 264.973 918.02 250.04C905.813 235.107 888.3 227.637 865.48 227.63C841.92 227.63 823.733 235.39 810.92 250.91C798.107 266.43 791.7 288.347 791.7 316.66C791.7 344.74 798.107 366.5 810.92 381.94C823.733 397.38 841.793 405.107 865.1 405.12C881.193 405.12 895.26 401.353 907.3 393.82C919.34 386.287 928.907 375.503 936 361.47L956.09 370.36C947.723 388.36 935.62 402.263 919.78 412.07C903.94 421.877 885.84 426.77 865.48 426.75ZM783.21 323V303H948V323H783.21Z" fill="white"/>
<path d="M1003.19 421V212.36H1023.47V262.36L1018.47 255.79C1020.74 249.961 1023.69 244.42 1027.26 239.28C1030.36 234.689 1034.03 230.503 1038.17 226.82C1043.8 221.616 1050.44 217.636 1057.68 215.13C1064.96 212.535 1072.57 210.977 1080.28 210.5C1087.22 209.989 1094.2 210.607 1100.94 212.33V233.39C1092.33 231.436 1083.43 231.043 1074.68 232.23C1065.41 233.39 1056.72 237.39 1048.6 244.23C1041.78 250.049 1036.48 257.442 1033.15 265.77C1029.92 274.008 1027.84 282.653 1026.97 291.46C1026.08 300.155 1025.63 308.89 1025.62 317.63V421H1003.19Z" fill="white"/>
<path d="M1126.59 232.64V212.36H1212.34V232.64H1126.59ZM1212.34 421C1201.57 423.422 1190.53 424.364 1179.51 423.8C1169.47 423.424 1159.63 420.922 1150.63 416.46C1142.21 412.148 1135.5 405.093 1131.63 396.46C1128.25 389.511 1126.28 381.963 1125.83 374.25C1125.45 366.777 1125.26 358.213 1125.25 348.56V154.42H1147.66V348.14C1147.66 356.9 1147.76 364.143 1147.95 369.87C1148.09 375.353 1149.45 380.735 1151.95 385.62C1156.58 394.5 1163.91 399.873 1173.95 401.74C1183.99 403.607 1196.8 403.32 1212.39 400.88L1212.34 421Z" fill="white"/>
<path d="M1312.59 426.75C1296.49 426.75 1283.13 423.92 1272.5 418.26C1261.87 412.6 1253.92 405.097 1248.65 395.75C1243.39 386.484 1240.66 375.996 1240.73 365.34C1240.73 353.493 1243.21 343.577 1248.17 335.59C1253.12 327.62 1259.95 320.986 1268.06 316.27C1276.64 311.267 1285.92 307.56 1295.59 305.27C1307.05 302.69 1319.41 300.467 1332.67 298.6C1345.93 296.733 1358.6 295.093 1370.67 293.68C1382.67 292.26 1392.49 291.037 1400.12 290.01L1392.01 294.84C1392.52 272.313 1388.31 255.54 1379.36 244.52C1370.41 233.5 1354.66 227.993 1332.09 228C1316.25 228 1303.21 231.573 1292.98 238.72C1282.75 245.867 1275.57 256.907 1271.44 271.84L1248.65 265.47C1253.41 246.537 1263 231.987 1277.43 221.82C1291.86 211.653 1310.34 206.567 1332.87 206.56C1352.05 206.56 1368.18 210.293 1381.25 217.76C1394.32 225.227 1403.43 235.723 1408.58 249.25C1410.93 255.49 1412.42 262.019 1413.02 268.66C1413.79 276.068 1414.18 283.512 1414.18 290.96V421H1393.9V366.11L1401.43 368.04C1395.12 386.84 1384.12 401.327 1368.43 411.5C1352.74 421.673 1334.13 426.757 1312.59 426.75ZM1313.74 406.28C1327.9 406.28 1340.33 403.737 1351.02 398.65C1361.38 393.844 1370.33 386.462 1377.02 377.21C1383.65 368.01 1387.87 357.163 1389.67 344.67C1391 337.208 1391.71 329.649 1391.79 322.07C1391.92 313.957 1391.99 307.957 1391.99 304.07L1401.64 310.25C1393.27 311.277 1383.27 312.37 1371.64 313.53C1360.01 314.69 1348.13 316.12 1336 317.82C1324.94 319.294 1313.97 321.421 1303.16 324.19C1296.84 325.974 1290.73 328.403 1284.91 331.44C1278.87 334.515 1273.65 338.969 1269.65 344.44C1265.59 349.98 1263.56 357 1263.57 365.5C1263.64 372.094 1265.26 378.58 1268.3 384.43C1271.45 390.737 1276.7 395.95 1284.04 400.07C1291.38 404.19 1301.28 406.26 1313.74 406.28Z" fill="white"/>
<path d="M1468.26 170.26V141.87H1490.47V170.26H1468.26ZM1468.26 420.96V212.36H1490.47V421L1468.26 420.96Z" fill="white"/>
<path d="M1548.41 421V212.36H1568.69V259.3H1570.82V421H1548.41ZM1701.19 421V312.41C1701.33 300.572 1699.98 288.764 1697.19 277.26C1694.52 266.96 1690.52 258.203 1685.19 250.99C1679.99 243.906 1673.08 238.259 1665.1 234.58C1657.05 230.84 1647.55 228.973 1636.61 228.98C1625.28 228.98 1615.46 230.943 1607.15 234.87C1599.07 238.609 1592.04 244.279 1586.68 251.38C1581.09 258.928 1577.02 267.485 1574.68 276.58C1571.94 286.949 1570.6 297.636 1570.68 308.36L1553.1 306.23C1553.1 283.697 1556.93 265.123 1564.59 250.51C1572.25 235.897 1582.58 225.08 1595.59 218.06C1608.6 211.04 1623.21 207.533 1639.44 207.54C1649.92 207.371 1660.35 209.064 1670.24 212.54C1679.01 215.677 1687.09 220.505 1694 226.75C1700.76 232.939 1706.38 240.263 1710.61 248.39C1715.1 257.006 1718.39 266.199 1720.37 275.71C1722.53 285.935 1723.59 296.36 1723.56 306.81V421H1701.19Z" fill="white"/>
<path d="M1774 421.17V143H1886.41C1889.12 143 1892.41 143.1 1896.41 143.29C1900.23 143.468 1904.04 143.886 1907.81 144.54C1923.26 146.987 1936.17 152.27 1946.54 160.39C1956.84 168.419 1964.86 179.002 1969.81 191.09C1975.09 204.106 1977.72 218.045 1977.54 232.09C1977.54 247.157 1974.96 260.87 1969.81 273.23C1964.86 285.321 1956.84 295.907 1946.54 303.94C1936.17 312.047 1923.26 317.327 1907.81 319.78C1904.2 320.287 1900.37 320.673 1896.32 320.94C1892.26 321.2 1888.94 321.32 1886.32 321.32H1814.32V421.17H1774ZM1814.37 283.07H1884.87C1887.44 283.07 1890.3 282.95 1893.46 282.68C1896.49 282.451 1899.5 282 1902.46 281.33C1910.7 279.403 1917.33 275.833 1922.36 270.62C1927.32 265.504 1931.03 259.304 1933.19 252.51C1935.35 245.9 1936.46 238.993 1936.48 232.04C1936.46 225.119 1935.35 218.245 1933.19 211.67C1931.02 204.919 1927.32 198.759 1922.38 193.67C1917.36 188.457 1910.73 184.883 1902.48 182.95C1899.53 182.162 1896.52 181.647 1893.48 181.41C1890.32 181.15 1887.46 181.02 1884.89 181.02H1814.39L1814.37 283.07Z" fill="white"/>
<path d="M2071.66 425.67C2056.21 425.67 2043.27 422.807 2032.84 417.08C2022.41 411.353 2014.53 403.757 2009.18 394.29C2003.83 384.772 2001.07 374.018 2001.18 363.1C2001.18 352.54 2003.05 343.267 2006.78 335.28C2010.56 327.238 2016.26 320.247 2023.38 314.92C2030.71 309.307 2039.71 304.767 2050.38 301.3C2060.74 298.353 2071.25 295.966 2081.86 294.15C2093.58 292.09 2105.91 290.16 2118.86 288.36C2131.81 286.56 2130.94 286.694 2143.68 284.888C2143.94 268.534 2139.53 262.57 2132.38 254.65C2125.23 246.73 2112.97 242.773 2095.59 242.78C2085.05 242.674 2074.67 245.303 2065.45 250.41C2056.31 255.503 2049.94 263.903 2046.33 275.61L2008.67 264.02C2013.82 246.133 2023.64 231.907 2038.12 221.34C2052.6 210.773 2071.88 205.493 2095.97 205.5C2114.64 205.5 2130.89 208.687 2144.74 215.06C2158.23 221.085 2169.05 231.837 2175.16 245.29C2178.5 252.072 2180.59 259.398 2181.34 266.92C2182.14 275.072 2182.53 283.259 2182.5 291.45V419.92H2146.77V372.17L2153.72 378.35C2145.09 394.35 2134.12 406.23 2120.79 413.99C2107.46 421.75 2091.09 425.643 2071.66 425.67ZM2078.81 392.67C2090.27 392.67 2100.12 390.64 2108.36 386.58C2116.07 382.947 2122.87 377.638 2128.26 371.04C2133 365.302 2136.36 358.562 2138.11 351.33C2140.4 344.604 2141.67 337.572 2141.87 330.47C2142.19 322.75 2142.35 323.14 2142.35 318.5C2129.6 320.433 2131.15 320.433 2120.72 321.98C2110.29 323.527 2100.86 325.04 2092.43 326.52C2084.82 327.805 2077.3 329.575 2069.92 331.82C2064.75 333.599 2059.8 335.946 2055.15 338.82C2051.06 341.312 2047.56 344.675 2044.91 348.67C2042.3 352.899 2040.99 357.803 2041.15 362.77C2041.09 368.041 2042.47 373.228 2045.15 377.77C2048.1 382.553 2052.4 386.351 2057.51 388.68C2063.08 391.333 2070.18 392.657 2078.81 392.65V392.67Z" fill="white"/>
<path d="M2217.06 244.81V212.36H2317.06V244.81H2217.06ZM2317 421C2304.29 423.538 2291.33 424.638 2278.37 424.28C2265.75 423.9 2254.48 421.453 2244.57 416.94C2234.88 412.647 2226.97 405.146 2222.17 395.7C2217.8 387.57 2215.32 378.554 2214.93 369.33C2214.6 360.39 2214.44 350.25 2214.44 338.91V154.42H2255V336.94C2255 345.313 2255.1 352.59 2255.29 358.77C2255.48 364.95 2256.82 370.163 2259.29 374.41C2263.96 382.41 2271.33 386.95 2281.41 388.03C2291.49 389.11 2303.37 388.69 2317.04 386.77L2317 421Z" fill="white"/>
<path d="M2366.5 415.67V137.5H2402.62V232.067L2404 239.68L2402.62 287.58H2407.45V415.67H2366.5ZM2513.09 415.67V313.07C2513.08 304.697 2512.41 296.338 2511.09 288.07C2509.81 279.756 2507.2 271.702 2503.36 264.22C2499.67 256.997 2494.16 250.866 2487.36 246.44C2480.47 241.94 2471.49 239.687 2460.42 239.68C2453.43 239.643 2446.5 240.855 2439.94 243.26C2433.46 245.668 2427.66 249.61 2423.04 254.75C2418.21 260.03 2414.42 266.983 2411.65 275.61C2408.88 284.237 2407.5 294.73 2407.5 307.09L2385.5 284C2385.5 265.067 2385.88 262.03 2392.96 247.55C2395.59 242.009 2398.84 236.819 2402.62 232.067C2408.41 224.793 2415.46 218.547 2423.47 213.65C2436.74 205.537 2452.77 201.48 2471.57 201.48C2485.99 201.48 2498.09 203.813 2507.88 208.48C2517.1 212.663 2525.26 218.882 2531.73 226.67C2537.74 234.033 2542.48 242.356 2545.73 251.29C2548.83 259.728 2551.03 268.47 2552.29 277.37C2553.37 284.79 2553.95 292.273 2554.03 299.77V415.67H2513.09Z" fill="white"/>
<path d="M2577.11 208.64V149H2554V142.52H2607V149H2583.9V208.67L2577.11 208.64Z" fill="white"/>
<path d="M2614.32 208.64V142.49H2620.52L2646.52 198.12L2672.38 142.49H2678.68V208.59H2672.24V157.59L2648.68 208.67H2644.32L2620.8 157.59V208.67L2614.32 208.64Z" fill="white"/>
</svg>
