<?xml version="1.0" encoding="utf-8"?>
<!-- Uploaded to: SVG Repo, www.svgrepo.com, Generator: SVG Repo Mixer Tools -->
<svg width="800px" height="800px" viewBox="0 0 1024 1024" fill="#000000" class="icon"  version="1.1" xmlns="http://www.w3.org/2000/svg"><path d="M783.944 1023.894c-0.844 0-1.688-0.124-2.532-0.406l-45.458-15.154-45.46 15.154a8.22 8.22 0 0 1-5.06 0l-45.458-15.154-45.46 15.154a8.22 8.22 0 0 1-5.06 0l-45.458-15.154-45.46 15.154c-1.64 0.532-3.42 0.532-5.062 0l-45.458-15.154-45.466 15.154a8.228 8.228 0 0 1-5.062 0l-45.458-15.154-45.458 15.154a8.228 8.228 0 0 1-5.062 0l-45.78-15.264-61.72 15.436a8.142 8.142 0 0 1-3.876 0L128.4 1008.224l-45.772 15.264c-2.438 0.766-5.124 0.39-7.21-1.11s-3.32-3.906-3.32-6.484V48.096C72.098 21.634 93.624 0.106 120.088 0.106h703.854c4.422 0 7.998 3.578 7.998 8s-3.576 7.998-7.998 7.998H120.082c-17.646 0-31.994 14.356-31.994 31.994v956.708l37.454-12.498a8.2 8.2 0 0 1 4.468-0.172l62.056 15.512 62.042-15.512a8.2 8.2 0 0 1 4.468 0.172l45.458 15.152 45.46-15.152a8.228 8.228 0 0 1 5.062 0l45.458 15.152 45.466-15.152a8.228 8.228 0 0 1 5.062 0L496 1007.46l45.458-15.152a8.228 8.228 0 0 1 5.062 0l45.458 15.152 45.458-15.152a8.22 8.22 0 0 1 5.06 0l45.458 15.152 45.46-15.152a8.22 8.22 0 0 1 5.06 0l47.99 15.996a8.02 8.02 0 0 1 5.062 10.124 8.006 8.006 0 0 1-7.582 5.466z" fill="" /><path d="M783.944 1023.894a7.994 7.994 0 0 1-7.998-8V48.346a7.994 7.994 0 0 1 7.998-7.998c4.422 0 8 3.578 8 7.998v967.548c0 4.422-3.578 8-8 8z" fill="" /><path d="M863.928 56.344a7.992 7.992 0 0 1-7.998-7.998c0-17.636-14.342-31.994-31.994-31.994s-31.992 14.356-31.992 31.994a7.994 7.994 0 0 1-8 7.998 7.994 7.994 0 0 1-7.998-7.998c0-26.462 21.528-47.99 47.99-47.99s47.99 21.528 47.99 47.99a7.994 7.994 0 0 1-7.998 7.998zM903.92 480.006c-26.464 0-47.99-21.526-47.99-47.99 0-4.42 3.576-8 7.998-8a7.994 7.994 0 0 1 7.998 8c0 17.636 14.342 31.994 31.994 31.994s31.992-14.356 31.992-31.994c0-4.42 3.578-8 7.998-8a7.994 7.994 0 0 1 7.998 8c0 26.464-21.526 47.99-47.988 47.99z" fill="" /><path d="M943.91 440.03a7.994 7.994 0 0 1-7.998-7.998v-167.982a7.994 7.994 0 0 1 7.998-7.998 7.994 7.994 0 0 1 7.998 7.998v167.982a7.992 7.992 0 0 1-7.998 7.998zM863.928 440.014a7.994 7.994 0 0 1-7.998-7.998V48.346a7.994 7.994 0 0 1 7.998-7.998 7.994 7.994 0 0 1 7.998 7.998v383.67a7.994 7.994 0 0 1-7.998 7.998zM591.984 224.06H272.05a7.994 7.994 0 0 1-7.998-8V184.068c0-4.422 3.578-8 7.998-8h319.934a7.994 7.994 0 0 1 7.998 8v31.992c0 4.422-3.578 8-7.998 8z m-311.936-15.998h303.938v-15.996H280.048v15.996z" fill="" /><path d="M543.994 384.026H320.04a7.994 7.994 0 0 1-7.842-6.436l-31.992-159.966a8.022 8.022 0 0 1 1.656-6.638 8.028 8.028 0 0 1 6.186-2.922h287.94c2.406 0 4.656 1.078 6.188 2.922a8.024 8.024 0 0 1 1.656 6.638l-31.994 159.966a8 8 0 0 1-7.844 6.436z m-217.4-15.996h210.838l28.808-143.97H297.802l28.792 143.97z" fill="" /><path d="M432.018 336.036c-4.422 0-8-3.578-8-7.998v-63.988a7.994 7.994 0 0 1 8-7.998 7.994 7.994 0 0 1 7.998 7.998v63.988a7.994 7.994 0 0 1-7.998 7.998zM480.006 336.036a7.994 7.994 0 0 1-7.998-7.998v-63.988c0-4.42 3.578-7.998 7.998-7.998s8 3.578 8 7.998v63.988a7.994 7.994 0 0 1-8 7.998zM384.028 336.036c-4.422 0-8-3.578-8-7.998v-63.988a7.994 7.994 0 0 1 8-7.998 7.994 7.994 0 0 1 7.998 7.998v63.988a7.994 7.994 0 0 1-7.998 7.998zM336.03 192.066a8.016 8.016 0 0 1-4.992-1.75 8.014 8.014 0 0 1-1.25-11.248l63.988-79.982a8.04 8.04 0 0 1 11.248-1.25 8.014 8.014 0 0 1 1.25 11.248l-63.986 79.982a8.016 8.016 0 0 1-6.258 3zM527.998 192.066a8.012 8.012 0 0 1-6.25-3l-63.986-79.982a8.01 8.01 0 0 1 1.25-11.248 8.04 8.04 0 0 1 11.248 1.25l63.988 79.982a8.028 8.028 0 0 1-1.25 11.248 8.03 8.03 0 0 1-5 1.75zM703.96 496.002H160.074c-4.42 0-8-3.578-8-7.998v-31.994a7.994 7.994 0 0 1 8-7.998H703.96a7.994 7.994 0 0 1 7.998 7.998v31.994a7.994 7.994 0 0 1-7.998 7.998z m-535.888-15.996h527.89v-15.996H168.072v15.996zM416.02 575.986H160.074c-4.42 0-8-3.576-8-7.998s3.578-7.998 8-7.998H416.02c4.422 0 8 3.576 8 7.998s-3.578 7.998-8 7.998zM703.96 575.986h-47.99c-4.422 0-7.998-3.576-7.998-7.998s3.576-7.998 7.998-7.998h47.99c4.42 0 7.998 3.576 7.998 7.998s-3.578 7.998-7.998 7.998zM464.01 639.972H160.074c-4.42 0-8-3.576-8-7.998a7.994 7.994 0 0 1 8-7.998h303.936c4.422 0 8 3.578 8 7.998a7.994 7.994 0 0 1-8 7.998zM703.96 639.972h-47.99a7.992 7.992 0 0 1-7.998-7.998 7.994 7.994 0 0 1 7.998-7.998h47.99a7.994 7.994 0 0 1 7.998 7.998 7.994 7.994 0 0 1-7.998 7.998zM400.024 703.96H160.074c-4.42 0-8-3.578-8-8a7.994 7.994 0 0 1 8-7.998h239.95a7.994 7.994 0 0 1 7.998 7.998c0 4.422-3.578 8-7.998 8zM703.96 703.96h-47.99a7.994 7.994 0 0 1-7.998-8 7.994 7.994 0 0 1 7.998-7.998h47.99a7.994 7.994 0 0 1 7.998 7.998c0 4.422-3.578 8-7.998 8zM703.96 799.94H160.074c-4.42 0-8-3.576-8-7.998a7.994 7.994 0 0 1 8-7.998H703.96a7.994 7.994 0 0 1 7.998 7.998 7.994 7.994 0 0 1-7.998 7.998zM288.046 895.92H160.074c-4.42 0-8-3.576-8-7.998s3.578-7.998 8-7.998h127.974c4.42 0 7.998 3.576 7.998 7.998s-3.578 7.998-8 7.998zM623.976 895.92h-47.99c-4.42 0-7.998-3.576-7.998-7.998s3.578-7.998 7.998-7.998h47.99c4.422 0 7.998 3.576 7.998 7.998s-3.576 7.998-7.998 7.998zM703.96 911.918h-31.994a7.994 7.994 0 0 1-7.998-8 7.994 7.994 0 0 1 7.998-7.998h17.058l-23.712-35.554a8.072 8.072 0 0 1-0.406-8.216 8.032 8.032 0 0 1 7.06-4.218h31.994a7.994 7.994 0 0 1 7.998 8 7.992 7.992 0 0 1-7.998 7.996h-17.06l23.714 35.556a8.072 8.072 0 0 1 0.406 8.216 8.034 8.034 0 0 1-7.06 4.218z" fill="" /><path d="M687.962 863.926a7.992 7.992 0 0 1-7.998-7.996v-8a7.994 7.994 0 0 1 7.998-7.998c4.422 0 8 3.578 8 7.998v8a7.994 7.994 0 0 1-8 7.996zM687.962 919.914a7.992 7.992 0 0 1-7.998-7.996v-8a7.994 7.994 0 0 1 7.998-7.998c4.422 0 8 3.578 8 7.998v8a7.994 7.994 0 0 1-8 7.996zM208.064 480.006c-4.42 0-8-3.576-8-7.998v-15.996c0-4.422 3.578-7.998 8-7.998s7.998 3.576 7.998 7.998v15.996a7.994 7.994 0 0 1-7.998 7.998zM272.05 480.006a7.994 7.994 0 0 1-7.998-7.998v-15.996c0-4.422 3.578-7.998 7.998-7.998s8 3.576 8 7.998v15.996a7.996 7.996 0 0 1-8 7.998zM336.038 480.006a7.992 7.992 0 0 1-7.998-7.998v-15.996a7.992 7.992 0 0 1 7.998-7.998 7.994 7.994 0 0 1 7.998 7.998v15.996a7.994 7.994 0 0 1-7.998 7.998zM400.024 480.006a7.994 7.994 0 0 1-7.998-7.998v-15.996c0-4.422 3.578-7.998 7.998-7.998s7.998 3.576 7.998 7.998v15.996a7.994 7.994 0 0 1-7.998 7.998zM464.01 480.006a7.994 7.994 0 0 1-7.998-7.998v-15.996a7.994 7.994 0 0 1 7.998-7.998c4.422 0 8 3.576 8 7.998v15.996a7.994 7.994 0 0 1-8 7.998zM527.998 480.006c-4.422 0-8-3.576-8-7.998v-15.996a7.994 7.994 0 0 1 8-7.998 7.992 7.992 0 0 1 7.996 7.998v15.996a7.992 7.992 0 0 1-7.996 7.998zM591.984 480.006a7.992 7.992 0 0 1-7.998-7.998v-15.996a7.992 7.992 0 0 1 7.998-7.998 7.994 7.994 0 0 1 7.998 7.998v15.996a7.994 7.994 0 0 1-7.998 7.998zM655.97 480.006a7.992 7.992 0 0 1-7.998-7.998v-15.996c0-4.422 3.576-7.998 7.998-7.998s7.998 3.576 7.998 7.998v15.996a7.992 7.992 0 0 1-7.998 7.998zM903.92 480.006h-119.976a7.994 7.994 0 0 1-7.998-7.998 7.994 7.994 0 0 1 7.998-7.998h119.976a7.994 7.994 0 0 1 7.998 7.998 7.994 7.994 0 0 1-7.998 7.998zM943.91 272.048h-79.982a7.992 7.992 0 0 1-7.998-7.998 7.994 7.994 0 0 1 7.998-7.998h79.982a7.994 7.994 0 0 1 7.998 7.998 7.992 7.992 0 0 1-7.998 7.998z" fill="" /></svg>