<?xml version="1.0" encoding="iso-8859-1"?>
<!-- Uploaded to: SVG Repo, www.svgrepo.com, Generator: SVG Repo Mixer Tools -->
<svg fill="#000000" height="800px" width="800px" version="1.1" id="Layer_1" xmlns="http://www.w3.org/2000/svg" xmlns:xlink="http://www.w3.org/1999/xlink" 
	 viewBox="0 0 508.1 508.1" xml:space="preserve">
<g>
	<g>
		<path d="M493.9,0.102H14.1c-7.8,0-14.1,6.3-14.1,14.1v332.6c0,7.8,6.3,14.1,14.1,14.1h231.4c7,18.6,20,34.3,36.7,44.7v88.3
			c0,5.4,3,10.2,7.8,12.6c4.8,2.4,10.5,1.9,14.8-1.4l24.3-18.3l24.3,18.3c2.5,1.9,10.1,3.6,14.8,1.4c4.8-2.3,7.8-7.3,7.8-12.6v-88.3
			c16.7-10.4,29.7-26.1,36.7-44.8H494c7.8,0,14.1-6.3,14.1-14.1v-332.5C508,6.402,501.7,0.102,493.9,0.102z M347.8,465.702h-0.1
			l-10.1-7.7c-5-3.8-12-3.8-17,0l-10.1,7.7v-48.5c12.2,2.6,25.1,2.6,37.3,0V465.702z M329.1,390.902c-33.6,0-60.9-27.3-60.9-60.9
			c0-33.6,27.3-60.9,60.9-60.9c33.6,0,60.9,27.3,60.9,60.9C390,363.602,362.7,390.902,329.1,390.902z M479.8,332.702L479.8,332.702
			h-61.7c0-0.9,0.1-1.8,0.1-2.7c0-49.2-40-89.1-89.1-89.1c-49.2,0-89.1,40-89.1,89.1c0,0.9,0.1,1.8,0.1,2.7H28.2v-304.4h451.6
			V332.702z"/>
	</g>
</g>
<g>
	<g>
		<path d="M211.7,66.702H79.3c-7.8,0-14.1,6.3-14.1,14.1s6.3,14.1,14.1,14.1h132.4c7.8,0,14.1-6.3,14.1-14.1
			S219.5,66.702,211.7,66.702z"/>
	</g>
</g>
<g>
	<g>
		<path d="M428.8,199.702H79.3c-7.8,0-14.1,6.3-14.1,14.1c0,7.8,6.3,14.1,14.1,14.1h349.5c7.8,0,14.1-6.3,14.1-14.1
			C442.9,206.002,436.6,199.702,428.8,199.702z"/>
	</g>
</g>
<g>
	<g>
		<path d="M211.7,266.202H79.3c-7.8,0-14.1,6.3-14.1,14.1c-0.1,7.8,6.3,14.1,14.1,14.1h132.4c7.8,0,14.1-6.3,14.1-14.1
			C225.8,272.502,219.5,266.202,211.7,266.202z"/>
	</g>
</g>
<g>
	<g>
		<path d="M428.8,133.202H79.3c-7.8,0-14.1,6.3-14.1,14.1c-0.1,7.8,6.3,14.1,14.1,14.1h349.5c7.8,0,14.1-6.3,14.1-14.1
			C442.9,139.502,436.6,133.202,428.8,133.202z"/>
	</g>
</g>
</svg>