<?xml version="1.0" encoding="iso-8859-1"?>
<!-- Uploaded to: SVG Repo, www.svgrepo.com, Generator: SVG Repo Mixer Tools -->
<svg fill="#000000" height="800px" width="800px" version="1.1" id="Layer_1" xmlns="http://www.w3.org/2000/svg" xmlns:xlink="http://www.w3.org/1999/xlink" 
	 viewBox="0 0 512 512" xml:space="preserve">
<g transform="translate(1 1)">
	<g>
		<g>
			<path d="M365.933,297.507c23.893,0,42.667-18.773,42.667-42.667s-18.773-42.667-42.667-42.667s-42.667,18.773-42.667,42.667
				S342.04,297.507,365.933,297.507z M365.933,229.24c14.507,0,25.6,11.093,25.6,25.6s-11.093,25.6-25.6,25.6
				s-25.6-11.093-25.6-25.6S351.427,229.24,365.933,229.24z"/>
			<path d="M502.467,41.507H7.533C2.413,41.507-1,44.92-1,50.04v341.333c0,5.12,3.413,8.533,8.533,8.533h307.2v59.733
				c0,3.413,2.56,6.827,5.973,8.533c3.413,0.853,6.827,0,9.387-2.56l35.84-43.52l35.84,42.667c1.707,2.56,4.267,3.413,6.827,3.413
				c0.853,0,1.707,0,2.56-0.853c3.413-0.853,5.973-4.267,5.973-7.68v-59.733h85.333c5.12,0,8.533-3.413,8.533-8.533V50.04
				C511,44.92,507.587,41.507,502.467,41.507z M307.053,279.587c-1.707-5.973-6.827-10.24-12.8-12.8l-18.773-6.827
				c-3.413-0.853-3.413-4.267-3.413-5.12s0.853-4.267,5.12-6.827l18.773-6.827c5.973-2.56,10.24-6.827,12.8-12.8
				c2.56-5.973,1.707-11.947-0.853-17.92l-8.533-17.067c-1.707-2.56,0-5.12,0.853-5.973c0.853-0.853,2.56-2.56,5.973-0.853
				l17.067,8.533c5.12,2.56,11.947,3.413,17.92,0.853c5.973-1.707,10.24-6.827,12.8-12.8l6.827-18.773
				c0.853-3.413,4.267-3.413,5.12-3.413s4.267,0,6.827,5.12l6.827,18.773c2.56,5.973,6.827,10.24,12.8,12.8
				s11.947,1.707,17.92-0.853l17.067-8.533c2.56-1.707,5.12,0,5.973,0.853s2.56,2.56,0.853,5.973l-8.533,17.067
				c-2.56,5.12-3.413,11.947-0.853,17.92c1.707,5.973,6.827,10.24,12.8,12.8l18.773,6.827c3.413,1.707,3.413,4.267,3.413,5.12
				s0,3.413-5.12,5.973l-18.773,6.827c-5.973,2.56-10.24,6.827-12.8,12.8c-2.56,5.973-1.707,11.947,0.853,17.92l8.533,17.067
				c1.707,2.56,0,5.12-0.853,5.973c-0.853,0.853-2.56,2.56-5.973,0.853l-13.653-6.827l0,0l-3.413-1.707
				c-5.12-2.56-11.947-3.413-17.92-0.853c-0.373,0.107-0.74,0.227-1.1,0.359c-3.24,1.194-5.94,3.418-8.1,6.216
				c-0.72,0.932-1.38,1.929-1.98,2.972c-0.6,1.043-1.14,2.133-1.62,3.253l-6.827,18.773c0,0,0,0,0,0
				c-1.707,3.413-4.267,3.413-5.12,3.413c-0.48,0-1.77,0-2.959-0.607c-0.264-0.135-0.523-0.3-0.767-0.502
				c-0.122-0.101-0.24-0.211-0.354-0.331c-0.453-0.48-0.827-1.12-1.04-1.973l-6.827-18.773c-0.32-0.747-0.667-1.467-1.04-2.16
				c-2.613-4.853-6.533-8.4-11.76-10.64c-1.974-0.846-3.949-1.313-5.924-1.475c-0.917-0.141-1.807-0.232-2.61-0.232
				c-3.413,0-6.827,0.853-11.093,1.707l-17.067,8.533c-2.56,1.707-5.12,0-5.973-0.853s-2.56-2.56-0.853-5.973l8.533-17.067
				C308.76,292.387,309.613,285.56,307.053,279.587z M400.067,436.6l-27.307-33.28c-1.707-2.56-4.267-3.413-6.827-3.413
				s-5.12,0.853-6.827,2.56l-27.307,33.28v-44.373v-63.147c0.191-0.191,0.383-0.288,0.574-0.336
				c0.819,0.096,1.527,0.336,1.986,0.336c0.853,0.853,2.56,1.707,3.413,3.413l6.827,19.627c3.413,8.533,11.947,14.507,21.333,14.507
				s17.92-5.973,21.333-15.36l6.827-18.773c0.853-2.56,2.56-3.413,3.413-3.413c0,0,0.853,0,2.56,0v63.147V436.6z M493.933,382.84
				h-76.8h0v-46.933l1.707,0.853c8.533,4.267,18.773,2.56,25.6-4.267s8.533-17.067,4.267-25.6l-8.533-17.067
				c-0.853-1.707,0-3.413,0-4.267c0.853-0.853,1.707-2.56,3.413-3.413l18.773-6.827c8.533-3.413,14.507-11.947,14.507-21.333
				s-5.973-17.92-14.507-21.333l-18.773-6.827c-2.56-0.853-2.56-2.56-3.413-3.413c-0.853-0.853-0.853-2.56,0-4.267l8.533-17.067
				c4.267-8.533,2.56-18.773-4.267-25.6s-17.067-8.533-25.6-4.267l-17.067,8.533c-1.707,0.853-3.413,0-4.267,0
				c-0.853-0.853-2.56-1.707-3.413-3.413l-6.827-18.773c-3.413-8.533-11.947-14.507-21.333-14.507s-17.92,5.973-21.333,14.507
				l-6.827,18.773c-0.853,2.56-2.56,3.413-3.413,3.413c-0.853,0.853-2.56,0.853-4.267,0l-17.067-8.533
				c-8.533-4.267-18.773-2.56-25.6,4.267s-8.533,17.067-4.267,25.6l8.533,17.067c0.853,1.707,0.853,3.413,0,4.267
				c-0.853,0.853-1.707,2.56-3.413,3.413l-18.773,6.827C260.973,236.067,255,244.6,255,253.987s5.973,17.92,14.507,21.333
				l18.773,6.827c2.56,0.853,3.413,2.56,3.413,3.413c0.853,0.853,0.853,2.56,0,4.267l-8.533,17.067
				c-4.267,8.533-2.56,18.773,4.267,25.6s17.067,8.533,25.6,4.267l1.707-0.853v46.933H16.067V58.573h477.867V382.84z"/>
			<path d="M58.733,178.04h187.733c5.12,0,8.533-3.413,8.533-8.533c0-5.12-3.413-8.533-8.533-8.533H58.733
				c-5.12,0-8.533,3.413-8.533,8.533C50.2,174.627,53.613,178.04,58.733,178.04z"/>
			<path d="M58.733,126.84h238.933c5.12,0,8.533-3.413,8.533-8.533s-3.413-8.533-8.533-8.533H58.733
				c-5.12,0-8.533,3.413-8.533,8.533S53.613,126.84,58.733,126.84z"/>
			<path d="M58.733,229.24h153.6c5.12,0,8.533-3.413,8.533-8.533c0-5.12-3.413-8.533-8.533-8.533h-153.6
				c-5.12,0-8.533,3.413-8.533,8.533C50.2,225.827,53.613,229.24,58.733,229.24z"/>
			<path d="M58.733,280.44h110.933c5.12,0,8.533-3.413,8.533-8.533s-3.413-8.533-8.533-8.533H58.733
				c-5.12,0-8.533,3.413-8.533,8.533S53.613,280.44,58.733,280.44z"/>
			<path d="M58.733,340.173H152.6c5.12,0,8.533-3.413,8.533-8.533s-3.413-8.533-8.533-8.533H58.733c-5.12,0-8.533,3.413-8.533,8.533
				S53.613,340.173,58.733,340.173z"/>
		</g>
	</g>
</g>
</svg>