<?xml version="1.0" ?>
<!-- Uploaded to: SVG Repo, www.svgrepo.com, Generator: SVG Repo Mixer Tools -->
<svg width="800px" height="800px" viewBox="0 0 20 20" version="1.1" xmlns="http://www.w3.org/2000/svg">
<g id="layer1">
<path d="M 3 0 L 3 20 L 17 20 L 17 5 L 17 4 L 13 0 L 12 0 L 3 0 z M 4 1 L 12 1 L 12 4 L 12 5 L 16 5 L 16 19 L 4 19 L 4 1 z M 13 1.3535156 L 15.646484 4 L 13 4 L 13 1.3535156 z M 5 7 L 5 8 L 15 8 L 15 7 L 5 7 z M 5 9 L 5 10 L 15 10 L 15 9 L 5 9 z M 5 11 L 5 12 L 15 12 L 15 11 L 5 11 z M 5 13 L 5 14 L 15 14 L 15 13 L 5 13 z M 5 15 L 5 16 L 15 16 L 15 15 L 5 15 z " style="fill:#222222; fill-opacity:1; stroke:none; stroke-width:0px;"/>
</g>
</svg>