<?xml version="1.0" encoding="iso-8859-1"?>
<!-- Uploaded to: SVG Repo, www.svgrepo.com, Generator: SVG Repo Mixer Tools -->
<svg fill="#000000" version="1.1" id="Layer_1" xmlns="http://www.w3.org/2000/svg" xmlns:xlink="http://www.w3.org/1999/xlink" 
	 viewBox="0 0 496 496" xml:space="preserve">
<g>
	<g>
		<g>
			<path d="M496,80V48c0-26.472-21.528-48-48-48H128c-26.472,0-48,21.528-48,48v23.432l-7.192-7.192L16.24,120.808l21.552,21.552
				c-2.848,5.648-5.28,11.544-7.28,17.64H0v80h30.504c2,6.096,4.432,11.992,7.28,17.64l-21.552,21.552L72.8,335.76l7.2-7.192V416H0
				v32c0,26.472,21.528,48,48,48h320c26.472,0,48-21.528,48-48v-89.472c9.288-3.312,16-12.112,16-22.528
				c0-5.048-1.584-9.728-4.256-13.592l41.352-82.696C470.056,239.824,471,240,472,240c13.232,0,24-10.768,24-24s-10.768-24-24-24
				s-24,10.768-24,24c0,6.456,2.592,12.296,6.744,16.616L416,310.112V80H496z M416,48c0-17.648,14.352-32,32-32s32,14.352,32,32v16
				h-64V48z M472,208c4.416,0,8,3.584,8,8s-3.584,8-8,8c-4.416,0-8-3.584-8-8S467.584,208,472,208z M72.808,313.144l-33.952-33.952
				l18.752-18.744l-3.016-5.304c-4.456-7.848-7.968-16.352-10.44-25.28L42.528,224H16v-48h26.528l1.624-5.864
				c2.472-8.928,5.984-17.44,10.44-25.28l3.016-5.304l-18.752-18.744L72.8,86.864l18.744,18.752l5.304-3.016
				c7.84-4.456,16.352-7.968,25.28-10.44L128,90.528V64h48v26.528l5.864,1.624c8.928,2.472,17.44,5.984,25.28,10.44l5.304,3.016
				l18.744-18.752l33.944,33.944l-18.752,18.744l3.016,5.304c4.456,7.848,7.968,16.352,10.44,25.28l1.632,5.872H288v48h-26.528
				l-1.624,5.864c-2.472,8.928-5.984,17.44-10.44,25.28l-3.016,5.304l18.752,18.744L231.2,313.136l-18.744-18.752l-5.304,3.016
				c-7.848,4.456-16.352,7.968-25.28,10.44L176,309.472V336h-48v-26.528l-5.864-1.624c-8.928-2.472-17.44-5.984-25.28-10.44
				l-5.304-3.016L72.808,313.144z M48,480c-17.648,0-32-14.352-32-32v-16h304v16c0,12.28,4.64,23.504,12.248,32H48z M400,448
				c0,17.648-14.352,32-32,32s-32-14.352-32-32v-32H96V314.96c5.152,2.512,10.48,4.72,16,6.528V352h80v-30.504
				c6.096-2,11.992-4.432,17.64-7.28l21.552,21.552L287.76,279.2l-21.552-21.552c2.848-5.648,5.28-11.544,7.28-17.64H304V160
				h-30.512c-2-6.096-4.432-11.992-7.28-17.64l21.552-21.552L231.192,64.24L209.64,85.792c-5.648-2.848-11.544-5.28-17.64-7.28V48
				h-80v30.512c-5.52,1.808-10.848,4.024-16,6.528V48c0-17.648,14.352-32,32-32h284.32C404.688,24.504,400,35.704,400,48v265.472
				c-3.152,1.12-6,2.84-8.392,5.088l-40.84-23.336c0.728-2.296,1.232-4.688,1.232-7.224c0-13.232-10.768-24-24-24s-24,10.768-24,24
				c0,3.696,0.904,7.152,2.408,10.28l-48.12,48.12c-3.136-1.496-6.592-2.4-10.288-2.4c-13.232,0-24,10.768-24,24s10.768,24,24,24
				s24-10.768,24-24c0-3.696-0.912-7.152-2.408-10.28l48.12-48.12c3.136,1.496,6.592,2.4,10.288,2.4c4.816,0,9.28-1.456,13.04-3.904
				l43.28,24.728c-0.144,1.048-0.32,2.088-0.32,3.176c0,10.416,6.704,19.216,16,22.528V448z M336,288c0,4.416-3.584,8-8,8
				c-4.416,0-8-3.584-8-8c0-4.416,3.584-8,8-8C332.416,280,336,283.584,336,288z M256,368c0,4.416-3.584,8-8,8s-8-3.584-8-8
				c0-4.416,3.584-8,8-8S256,363.584,256,368z M408,344c-4.416,0-8-3.584-8-8c0-4.416,3.584-8,8-8c4.416,0,8,3.584,8,8
				C416,340.416,412.416,344,408,344z"/>
			<path d="M248,200c0-52.936-43.064-96-96-96c-52.936,0-96,43.064-96,96c0,52.936,43.064,96,96,96C204.936,296,248,252.936,248,200
				z M72,200c0-44.112,35.888-80,80-80s80,35.888,80,80s-35.888,80-80,80S72,244.112,72,200z"/>
			<path d="M160,264v-16h4c15.44,0,28-12.56,28-28s-12.56-28-28-28h-24c-6.616,0-12-5.384-12-12c0-6.616,5.384-12,12-12h24
				c6.616,0,12,5.384,12,12v4h16v-4c0-15.44-12.56-28-28-28h-4v-16h-16v16h-4c-15.44,0-28,12.56-28,28s12.56,28,28,28h24
				c6.616,0,12,5.384,12,12c0,6.616-5.384,12-12,12h-24c-6.616,0-12-5.384-12-12v-4h-16v4c0,15.44,12.56,28,28,28h4v16H160z"/>
			<rect x="336" y="32" width="16" height="16"/>
			<rect x="313.357" y="41.36" transform="matrix(0.7071 0.7071 -0.7071 0.7071 129.0262 -212.7765)" width="16" height="16"/>
			<rect x="304" y="64" width="16" height="16"/>
			<rect x="313.36" y="86.635" transform="matrix(-0.7071 -0.7071 0.7071 -0.7071 481.6786 388.7878)" width="16" height="16"/>
			<rect x="336" y="96" width="16" height="16"/>
			<rect x="358.63" y="86.637" transform="matrix(-0.7071 -0.7071 0.7071 -0.7071 558.9584 420.8017)" width="16" height="16"/>
			<rect x="368" y="64" width="16" height="16"/>
			<rect x="358.619" y="41.354" transform="matrix(0.7071 0.7071 -0.7071 0.7071 142.2788 -244.7835)" width="16" height="16"/>
			<rect x="336" y="128" width="16" height="88"/>
			<rect x="336" y="232" width="16" height="16"/>
		</g>
	</g>
</g>
</svg>