<?xml version="1.0" encoding="iso-8859-1"?>
<!-- Uploaded to: SVG Repo, www.svgrepo.com, Generator: SVG Repo Mixer Tools -->
<svg fill="#000000" height="800px" width="800px" version="1.1" id="Layer_1" xmlns="http://www.w3.org/2000/svg" xmlns:xlink="http://www.w3.org/1999/xlink" 
	 viewBox="0 0 512 512" xml:space="preserve">
<g>
	<g>
		<path d="M273.102,444.66h-34.205c-9.136,0-16.568,7.432-16.568,16.568v8.551c0,9.136,7.432,16.568,16.568,16.568h34.205
			c9.136,0,16.568-7.432,16.568-16.568v-8.551C289.67,452.092,282.238,444.66,273.102,444.66z M273.637,469.779
			c0,0.295-0.241,0.534-0.534,0.534h-34.205c-0.295,0-0.534-0.239-0.534-0.534v-8.551c0-0.295,0.239-0.534,0.534-0.534h34.205
			c0.294,0,0.534,0.239,0.534,0.534V469.779z"/>
	</g>
</g>
<g>
	<g>
		<path d="M409.921,178.505c4.428,0,8.017-3.589,8.017-8.017V42.221C417.937,18.941,398.997,0,375.716,0H136.284
			c-23.281,0-42.221,18.941-42.221,42.221v427.557c0,23.281,18.941,42.221,42.221,42.221h239.432
			c23.281,0,42.221-18.941,42.221-42.221V204.693c0-4.427-3.588-8.017-8.017-8.017c-4.428,0-8.017,3.589-8.017,8.017v74.389
			l-106.539-35.513l52.586-82.166h53.952v9.086C401.904,174.916,405.492,178.505,409.921,178.505z M110.096,42.221
			c0-14.44,11.748-26.188,26.188-26.188h239.432c14.441,0,26.188,11.748,26.188,26.188v26.188H110.096V42.221z M110.096,84.443
			h72.285l4.532,10.197c-29.278,3.542-53.497,23.691-62.936,50.73h-13.881V84.443z M196.142,110.096
			c33.3,0,60.392,27.092,60.392,60.393c0,25.889-39.038,85.231-60.392,114.767c-21.355-29.528-60.393-88.862-60.393-114.767
			C135.749,137.188,162.842,110.096,196.142,110.096z M110.096,161.403h10.179c-0.355,2.982-0.559,6.009-0.559,9.086
			c0,12.741,6.551,31.297,19.504,55.342l-29.124-2.774V161.403z M110.096,239.163l38.817,3.697
			c1.976,3.309,4.052,6.703,6.227,10.181c17.093,27.328,34.433,50.32,34.607,50.549c3.156,4.174,9.633,4.174,12.79,0
			c0.173-0.229,17.514-23.221,34.607-50.549c0.353-0.564,0.695-1.119,1.042-1.679l31.25,2.976l-19.098,29.841l-140.242,77.913
			V239.163z M401.904,469.779c0,14.44-11.747,26.188-26.188,26.188H136.284c-14.44,0-26.188-11.748-26.188-26.188V435.04h43.29
			c4.427,0,8.017-3.589,8.017-8.017c0-4.427-3.589-8.017-8.017-8.017h-43.29v-38.573l137.887-76.603v115.177h-60.392
			c-4.427,0-8.017,3.589-8.017,8.017c0,4.427,3.589,8.017,8.017,8.017h214.313V469.779z M401.904,419.006H264.017V305.883
			l137.887,99.586V419.006z M401.904,295.983v89.708l-135.066-97.547L286.45,257.5L401.904,295.983z M279.152,239.157l-31.829-3.031
			c16.763-29.098,25.245-51.133,25.245-65.638c0-3.076-0.204-6.103-0.559-9.086h56.906L279.152,239.157z M339.176,145.37h-70.87
			c-9.543-27.337-34.19-47.644-63.902-50.853l-4.478-10.074h178.242L339.176,145.37z M358.213,145.37l38.993-60.927h4.698v60.927
			H358.213z"/>
	</g>
</g>
<g>
	<g>
		<path d="M196.142,119.716c-27.995,0-50.772,22.777-50.772,50.772s22.777,50.772,50.772,50.772s50.772-22.777,50.772-50.772
			S224.137,119.716,196.142,119.716z M196.142,205.228c-19.155,0-34.739-15.584-34.739-34.739c0-19.155,15.584-34.739,34.739-34.739
			s34.739,15.584,34.739,34.739C230.881,189.643,215.296,205.228,196.142,205.228z"/>
	</g>
</g>
<g>
	<g>
		<path d="M180.109,162.472h-1.069c-4.427,0-8.017,3.589-8.017,8.017s3.589,8.017,8.017,8.017h1.069
			c4.427,0,8.017-3.589,8.017-8.017S184.536,162.472,180.109,162.472z"/>
	</g>
</g>
<g>
	<g>
		<path d="M214.313,162.472h-1.069c-4.427,0-8.017,3.589-8.017,8.017s3.589,8.017,8.017,8.017h1.069
			c4.427,0,8.017-3.589,8.017-8.017S218.741,162.472,214.313,162.472z"/>
	</g>
</g>
<g>
	<g>
		<path d="M273.102,34.205h-34.205c-4.427,0-8.017,3.589-8.017,8.017c0,4.427,3.589,8.017,8.017,8.017h34.205
			c4.428,0,8.017-3.589,8.017-8.017C281.119,37.794,277.531,34.205,273.102,34.205z"/>
	</g>
</g>
<g>
	<g>
		<path d="M308.376,34.205h-1.069c-4.428,0-8.017,3.589-8.017,8.017c0,4.427,3.588,8.017,8.017,8.017h1.069
			c4.428,0,8.017-3.589,8.017-8.017C316.393,37.794,312.804,34.205,308.376,34.205z"/>
	</g>
</g>
<g>
	<g>
		<path d="M205.762,34.205h-1.069c-4.427,0-8.017,3.589-8.017,8.017c0,4.427,3.589,8.017,8.017,8.017h1.069
			c4.427,0,8.017-3.589,8.017-8.017C213.779,37.794,210.189,34.205,205.762,34.205z"/>
	</g>
</g>
</svg>