<?xml version="1.0" encoding="iso-8859-1"?>
<!-- Uploaded to: SVG Repo, www.svgrepo.com, Generator: SVG Repo Mixer Tools -->
<svg fill="#000000" height="800px" width="800px" version="1.1" id="Layer_1" xmlns="http://www.w3.org/2000/svg" xmlns:xlink="http://www.w3.org/1999/xlink" 
	 viewBox="0 0 496 496" xml:space="preserve">
<g>
	<g>
		<g>
			<polygon points="464,136 448,136 448,480 432,480 432,136 416,136 416,480 400,480 400,320 384,320 384,480 368,480 368,320 
				352,320 352,480 336,480 336,280 320,280 320,480 304,480 304,280 288,280 288,480 272,480 272,296 256,296 256,480 240,480 
				240,296 224,296 224,480 208,480 208,184 192,184 192,480 176,480 176,184 160,184 160,480 144,480 144,336 128,336 128,480 
				112,480 112,336 96,336 96,480 80,480 80,304 64,304 64,480 48,480 48,304 32,304 32,480 0,480 0,496 496,496 496,480 464,480 
							"/>
			<path d="M56,280c30.872,0,56-25.128,56-56s-25.128-56-56-56S0,193.128,0,224S25.128,280,56,280z M72,260.608
				C67.088,262.768,61.696,264,56,264s-11.088-1.232-16-3.392V256c0-8.824,7.176-16,16-16c8.824,0,16,7.176,16,16V260.608z M48,216
				c0-4.416,3.584-8,8-8s8,3.584,8,8s-3.584,8-8,8S48,220.416,48,216z M56,184c22.056,0,40,17.944,40,40
				c0,9.424-3.408,17.976-8.88,24.816c-1.728-7.488-6.104-13.92-12.072-18.384C78.112,226.408,80,221.44,80,216
				c0-13.232-10.768-24-24-24s-24,10.768-24,24c0,5.44,1.888,10.408,4.952,14.44c-5.968,4.456-10.344,10.896-12.072,18.384
				C19.408,241.976,16,233.424,16,224C16,201.944,33.944,184,56,184z"/>
			<path d="M184,160c30.872,0,56-25.128,56-56s-25.128-56-56-56s-56,25.128-56,56S153.128,160,184,160z M200,140.608
				c-4.912,2.16-10.304,3.392-16,3.392s-11.088-1.232-16-3.392V136c0-8.824,7.176-16,16-16c8.824,0,16,7.176,16,16V140.608z M176,96
				c0-4.416,3.584-8,8-8s8,3.584,8,8s-3.584,8-8,8S176,100.416,176,96z M184,64c22.056,0,40,17.944,40,40
				c0,9.424-3.408,17.976-8.88,24.816c-1.728-7.488-6.104-13.92-12.072-18.384C206.112,106.408,208,101.44,208,96
				c0-13.232-10.768-24-24-24s-24,10.768-24,24c0,5.44,1.888,10.408,4.952,14.44c-5.968,4.456-10.344,10.896-12.072,18.384
				c-5.472-6.848-8.88-15.4-8.88-24.824C144,81.944,161.944,64,184,64z"/>
			<path d="M312,256c30.872,0,56-25.128,56-56s-25.128-56-56-56s-56,25.128-56,56S281.128,256,312,256z M328,236.608
				c-4.912,2.16-10.304,3.392-16,3.392c-5.696,0-11.088-1.232-16-3.392V232c0-8.824,7.176-16,16-16c8.824,0,16,7.176,16,16V236.608z
				 M304,192c0-4.416,3.584-8,8-8c4.416,0,8,3.584,8,8s-3.584,8-8,8C307.584,200,304,196.416,304,192z M312,160
				c22.056,0,40,17.944,40,40c0,9.424-3.408,17.976-8.88,24.816c-1.728-7.488-6.104-13.92-12.072-18.384
				C334.112,202.408,336,197.44,336,192c0-13.232-10.768-24-24-24s-24,10.768-24,24c0,5.44,1.888,10.408,4.952,14.44
				c-5.968,4.456-10.344,10.896-12.072,18.384c-5.472-6.848-8.88-15.4-8.88-24.824C272,177.944,289.944,160,312,160z"/>
			<path d="M440,112c30.872,0,56-25.128,56-56S470.872,0,440,0s-56,25.128-56,56S409.128,112,440,112z M456,92.608
				C451.088,94.768,445.696,96,440,96c-5.696,0-11.088-1.232-16-3.392V88c0-8.824,7.176-16,16-16c8.824,0,16,7.176,16,16V92.608z
				 M432,48c0-4.416,3.584-8,8-8c4.416,0,8,3.584,8,8s-3.584,8-8,8C435.584,56,432,52.416,432,48z M440,16c22.056,0,40,17.944,40,40
				c0,9.424-3.408,17.976-8.88,24.816c-1.728-7.488-6.104-13.92-12.072-18.384C462.112,58.408,464,53.44,464,48
				c0-13.232-10.768-24-24-24s-24,10.768-24,24c0,5.44,1.888,10.408,4.952,14.44c-5.968,4.456-10.344,10.896-12.072,18.384
				C403.408,73.976,400,65.424,400,56C400,33.944,417.944,16,440,16z"/>
		</g>
	</g>
</g>
</svg>