<?xml version="1.0" encoding="iso-8859-1"?>
<!-- Uploaded to: SVG Repo, www.svgrepo.com, Generator: SVG Repo Mixer Tools -->
<svg fill="#000000" height="800px" width="800px" version="1.1" id="Layer_1" xmlns="http://www.w3.org/2000/svg" xmlns:xlink="http://www.w3.org/1999/xlink" 
	 viewBox="0 0 511.653 511.653" xml:space="preserve">
<g transform="translate(1 1)">
	<g>
		<g>
			<path d="M131.267,164.8c21.333,19.627,116.907,120.32,117.76,121.173L255,292.8l5.12-6.827
				c0.853-0.853,97.28-100.693,117.76-121.173c46.933-45.227,33.28-104.96,9.387-131.413C367.64,11.2,343.747-0.747,319-0.747
				c-26.453,0-49.493,14.507-64.853,39.253c-14.507-24.747-38.4-39.253-64-39.253c-24.747,0-47.787,11.947-68.267,34.133
				C97.133,59.84,83.48,119.573,131.267,164.8z M134.68,44.48C152.6,25.706,171.373,16.32,191,16.32
				c23.893,0,45.227,17.067,56.32,44.373l7.68,20.48l6.827-19.627C272.92,33.386,295.107,16.32,319,16.32
				c20.48,0,39.253,9.387,56.32,28.16c19.627,21.333,29.867,69.973-8.533,107.52c-17.92,17.067-89.6,92.16-111.787,115.2
				c-21.333-22.187-93.013-98.133-111.787-115.2C103.96,115.306,115.053,65.813,134.68,44.48z"/>
			<path d="M505.88,312.426c-15.36-20.48-30.72-20.48-68.267-0.853L364.227,356.8c-10.24,5.973-33.28,7.68-54.613,7.68
				c4.267-7.68,2.56-17.067-5.12-28.16c-13.653-19.627-36.693-31.573-61.44-31.573h-33.28c-17.92,0-34.987-5.12-48.64-15.36
				c-30.791-23.093-78.94,2.035-102.4,17.023v-17.876H-1V510.4h59.733v-25.6h110.933c17.067,0,34.987-1.707,52.053-2.56
				l110.933-17.067c4.267,0,8.533-0.853,11.947-1.707c10.24-1.707,19.627-6.827,28.16-14.507l128.853-102.4
				C511.853,338.026,513.56,322.666,505.88,312.426z M41.667,493.333h-25.6V305.6h25.6v12.8v166.4V493.333z M491.373,334.613
				L361.667,435.306l-0.853,0.853c-5.12,5.973-11.947,9.387-19.627,10.24c-3.413,0.853-5.973,0.853-9.387,0.853L219.16,464.32
				c-16.213,2.56-33.28,3.413-49.493,3.413H58.733v-140.8c20.48-14.507,68.267-41.813,92.16-23.04
				c16.213,11.947,36.693,18.773,58.88,18.773h33.28c19.627,0,36.693,8.533,48.64,24.747c3.413,5.12,4.267,10.24,3.413,11.947
				c-2.56,4.267-12.8,5.973-23.893,6.827c-3.413,0-6.827,0-9.387,0H196.12c-26.453,0-42.667,12.8-42.667,34.133
				c0,5.12,3.413,8.533,8.533,8.533s8.533-3.413,8.533-8.533c0-4.267,0-17.067,25.6-17.067h64.853v0c2.56,0,5.973,0,11.093,0
				c0.853,0,2.56,0,4.267,0c40.107,0.853,77.653,0,97.28-10.24L447,327.786c35.84-17.92,39.253-13.653,46.08-3.413
				C494.787,326.933,494.787,332.053,491.373,334.613z"/>
		</g>
	</g>
</g>
</svg>