<?xml version="1.0" encoding="iso-8859-1"?>
<!-- Uploaded to: SVG Repo, www.svgrepo.com, Generator: SVG Repo Mixer Tools -->
<svg fill="#000000" version="1.1" id="Capa_1" xmlns="http://www.w3.org/2000/svg" xmlns:xlink="http://www.w3.org/1999/xlink" 
	 viewBox="0 0 511.995 511.995" xml:space="preserve">
<g>
	<path d="M511.995,256.248h-40.5v-51.215l-43.987-52.785h-5.657h-21.856h-21.856l-11.75,47h67.212l-5.806-23.225l28.7,34.44v45.785
		H349.85l-24-96h-46.356v-16.5h-0.363c1.187-0.857,2.336-1.774,3.428-2.767c8.22-7.474,12.935-18.129,12.935-29.233v-16
		c0-17.369-14.131-31.5-31.5-31.5h-16c-17.369,0-31.5,14.131-31.5,31.5v14.624c0,13.596,6.622,25.902,16.745,33.376h-0.745v16.5
		h-46.356l-24,96H0v15h16.495v176.5h15v-16.499h449v16.499h15v-176.5h16.5V256.248z M385.601,184.248l4.25-17h10.144h10.144l4.25,17
		H385.601z M334.389,256.248h-38.894v-17h16v-31.5h-15v16.5h-33v-49h50.644L334.389,256.248z M248.495,239.248v17h-17v-17H248.495z
		 M263.495,239.248h17v17h-17V239.248z M231.495,95.748c0-9.098,7.402-16.5,16.5-16.5h16c9.098,0,16.5,7.402,16.5,16.5v16
		c0,6.887-2.925,13.497-8.025,18.134c-5.169,4.7-11.884,6.923-18.905,6.249c-12.375-1.18-22.069-12.495-22.069-25.759V95.748z
		 M247.495,150.309c1.519,0.343,3.067,0.604,4.646,0.755c1.259,0.12,2.517,0.179,3.771,0.179c2.903,0,5.78-0.326,8.583-0.945v9.95
		h-17V150.309z M197.851,175.248h50.644v49h-33v-16.5h-15v31.5h16v17H177.6L197.851,175.248z M480.495,416.249h-449V271.248h449
		V416.249z"/>
	<rect x="15.992" y="232.247" width="112" height="15"/>
	<rect x="15.992" y="208.247" width="112" height="15"/>
	<rect x="31.992" y="184.247" width="96" height="15"/>
	<path d="M343.495,367.248v-79h-175v79H343.495z M183.495,303.248h145v49h-145V303.248z"/>
	<rect x="239.995" y="320.248" width="72" height="15"/>
	<rect x="199.995" y="320.248" width="24" height="15"/>
</g>
</svg>