<?xml version="1.0" encoding="iso-8859-1"?>
<!-- Uploaded to: SVG Repo, www.svgrepo.com, Generator: SVG Repo Mixer Tools -->
<svg fill="#000000" height="800px" width="800px" version="1.1" id="Layer_1" xmlns="http://www.w3.org/2000/svg" xmlns:xlink="http://www.w3.org/1999/xlink" 
	 viewBox="0 0 512.003 512.003" xml:space="preserve">
<g>
	<g>
		<g>
			<path d="M201.236,477.87h15.667c9.816,0,17.766-7.951,17.766-17.766v-15.667c0-9.816-7.951-17.766-17.766-17.766h-15.667
				c-9.816,0-17.766,7.951-17.766,17.766v15.667C183.469,469.919,191.42,477.87,201.236,477.87z M200.536,444.437
				c0-0.39,0.31-0.7,0.7-0.7h15.667c0.39,0,0.7,0.31,0.7,0.7v15.667c0,0.39-0.31,0.7-0.7,0.7h-15.667c-0.39,0-0.7-0.31-0.7-0.7
				V444.437z"/>
			<path d="M354.136,68.614V39.031C354.136,17.474,336.662,0,315.104,0h-212.07C81.476,0,64.003,17.474,64.003,39.031V59.72
				c0,0.006-0.001,0.011-0.001,0.017s0.001,0.011,0.001,0.017V401.07h-0.001v77.124c0,18.673,15.136,33.809,33.809,33.809h222.515
				c11.748,0,22.092-5.993,28.151-15.087c3.573-5.359,5.659-11.794,5.659-18.717V351.937l28.678-55.613
				c11.097-21.526,24.497-41.69,45.854-70.395c12.495-16.801,19.334-36.95,19.334-58.103
				C448.002,115.483,406.551,72.827,354.136,68.614z M81.069,68.27h59.732c4.713,0,8.533-3.82,8.533-8.533s-3.82-8.533-8.533-8.533
				H81.069V39.031c0-12.132,9.833-21.965,21.965-21.965h212.07c12.132,0,21.965,9.833,21.965,21.965v29.588
				c-0.033,0.003-0.066,0.007-0.1,0.009c-0.747,0.062-1.492,0.132-2.234,0.21c-0.069,0.007-0.137,0.016-0.205,0.023
				c-0.72,0.078-1.438,0.161-2.153,0.253c-0.092,0.012-0.183,0.026-0.275,0.038c-0.694,0.092-1.387,0.188-2.077,0.294
				c-0.107,0.016-0.214,0.035-0.321,0.052c-0.676,0.106-1.35,0.215-2.022,0.334c-0.113,0.02-0.225,0.043-0.338,0.063
				c-0.665,0.12-1.329,0.243-1.99,0.376c-0.116,0.023-0.23,0.05-0.346,0.073c-0.658,0.135-1.315,0.272-1.969,0.42
				c-0.074,0.017-0.147,0.035-0.221,0.052c-1.783,0.406-3.549,0.862-5.298,1.359c-0.442,0.126-0.884,0.249-1.324,0.38
				c-0.284,0.085-0.565,0.176-0.848,0.263c-0.478,0.147-0.957,0.294-1.432,0.448c-0.262,0.085-0.522,0.176-0.783,0.263
				c-0.493,0.164-0.987,0.328-1.477,0.5c-0.25,0.088-0.497,0.18-0.746,0.269c-0.497,0.178-0.994,0.357-1.487,0.542
				c-0.245,0.092-0.489,0.189-0.733,0.284c-0.494,0.19-0.988,0.381-1.478,0.578c-0.24,0.097-0.478,0.198-0.718,0.296
				c-0.491,0.202-0.982,0.405-1.469,0.614c-0.236,0.101-0.47,0.206-0.705,0.31c-0.487,0.214-0.973,0.428-1.457,0.649
				c-0.232,0.106-0.462,0.215-0.693,0.323c-0.482,0.225-0.964,0.451-1.442,0.683c-0.229,0.111-0.456,0.224-0.684,0.337
				c-0.477,0.236-0.953,0.473-1.426,0.716c-0.225,0.115-0.448,0.233-0.672,0.35c-0.472,0.247-0.943,0.496-1.411,0.749
				c-0.22,0.119-0.439,0.24-0.658,0.361c-0.468,0.258-0.934,0.518-1.398,0.783c-0.216,0.123-0.431,0.248-0.646,0.373
				c-0.463,0.269-0.924,0.541-1.382,0.816c-0.211,0.127-0.42,0.255-0.63,0.383c-0.459,0.281-0.916,0.564-1.37,0.852
				c-0.205,0.13-0.409,0.26-0.613,0.391c-0.453,0.291-0.904,0.586-1.353,0.884c-0.201,0.134-0.403,0.268-0.603,0.403
				c-0.45,0.303-0.896,0.61-1.341,0.92c-0.192,0.134-0.385,0.268-0.576,0.404c-0.449,0.317-0.894,0.639-1.338,0.963
				c-0.184,0.135-0.368,0.269-0.551,0.404c-0.446,0.33-0.888,0.665-1.328,1.002c-0.177,0.135-0.354,0.27-0.53,0.407
				c-0.444,0.344-0.883,0.693-1.321,1.045c-0.167,0.134-0.335,0.268-0.502,0.403c-0.444,0.361-0.884,0.727-1.322,1.095
				c-0.155,0.13-0.311,0.259-0.465,0.391c-0.448,0.381-0.892,0.767-1.334,1.156c-0.139,0.122-0.28,0.243-0.418,0.367
				c-0.455,0.404-0.904,0.814-1.351,1.225c-0.122,0.112-0.245,0.223-0.367,0.336c-0.469,0.436-0.932,0.877-1.393,1.322
				c-0.095,0.091-0.191,0.181-0.285,0.273c-0.497,0.483-0.988,0.972-1.476,1.465c-0.055,0.055-0.111,0.11-0.165,0.165
				c-0.538,0.547-1.071,1.1-1.597,1.659c-0.003,0.003-0.007,0.007-0.01,0.01c-3.217,3.418-6.196,7.049-8.91,10.867
				c-0.017,0.024-0.034,0.049-0.051,0.073c-0.428,0.603-0.85,1.211-1.265,1.824c-0.052,0.077-0.102,0.154-0.154,0.231
				c-0.379,0.563-0.754,1.129-1.121,1.699c-0.068,0.106-0.134,0.213-0.202,0.319c-0.348,0.544-0.691,1.09-1.028,1.64
				c-0.078,0.128-0.154,0.256-0.232,0.384c-0.322,0.532-0.641,1.066-0.954,1.603c-0.083,0.143-0.164,0.288-0.247,0.432
				c-0.302,0.526-0.601,1.055-0.894,1.587c-0.084,0.153-0.167,0.308-0.25,0.462c-0.286,0.526-0.568,1.054-0.844,1.585
				c-0.083,0.159-0.164,0.32-0.246,0.48c-0.272,0.531-0.541,1.064-0.804,1.6c-0.079,0.16-0.156,0.321-0.234,0.482
				c-0.26,0.537-0.516,1.077-0.766,1.619c-0.076,0.164-0.15,0.329-0.225,0.493c-0.247,0.544-0.49,1.089-0.727,1.638
				c-0.07,0.163-0.14,0.326-0.209,0.489c-0.237,0.557-0.47,1.115-0.697,1.677c-0.063,0.155-0.125,0.311-0.187,0.467
				c-0.228,0.573-0.451,1.148-0.669,1.726c-0.055,0.147-0.11,0.294-0.165,0.441c-0.219,0.59-0.431,1.182-0.639,1.776
				c-0.048,0.139-0.097,0.277-0.144,0.416c-0.21,0.61-0.413,1.223-0.61,1.837c-0.039,0.123-0.079,0.245-0.118,0.368
				c-0.202,0.637-0.396,1.276-0.585,1.918c-0.03,0.103-0.061,0.206-0.091,0.309c-0.194,0.667-0.379,1.338-0.559,2.01
				c-0.021,0.079-0.043,0.158-0.064,0.237c-0.186,0.705-0.363,1.412-0.533,2.123c-0.011,0.048-0.023,0.096-0.035,0.144
				c-0.179,0.753-0.349,1.509-0.51,2.268c-0.001,0.005-0.002,0.01-0.003,0.014c-1.15,5.436-1.836,11.021-2.003,16.713
				c-0.296,10.157,1.003,20.107,3.731,29.604c3.148,10.963,8.211,21.322,15.032,30.667c23.021,31.533,36.581,52.098,48.204,74.639
				l26.862,52.092v49.13h-256V68.27z M337.068,478.194c0,3.468-1.054,6.689-2.858,9.361c-3.009,4.451-8.104,7.378-13.883,7.378
				H97.812c-9.247,0-16.742-7.494-16.742-16.734v-60.063h255.999V478.194z M414.974,215.743
				c-21.867,29.39-35.711,50.223-47.329,72.76l-22.042,42.745l-20.226-39.222c-12.125-23.514-26.087-44.688-49.588-76.88
				c-5.26-7.206-9.264-15.121-11.887-23.49c-2.621-8.369-3.861-17.192-3.595-26.214c0.788-27.057,15.854-51.35,38.033-65.911
				c12.987-8.525,28.405-13.719,44.836-14.157c0.171-0.005,0.369,0,0.916,0.023c0.7,0.029,1.057,0.04,1.511,0.04
				c0.396,0,0.782-0.036,1.164-0.089c46.554,0.604,84.169,37.266,84.169,82.479C430.935,185.264,425.304,201.852,414.974,215.743z"
				/>
			<path d="M345.602,119.47c-23.563,0-42.667,19.104-42.667,42.667c0,23.563,19.104,42.667,42.667,42.667
				c23.563,0,42.667-19.104,42.667-42.667C388.268,138.574,369.165,119.47,345.602,119.47z M345.602,187.737
				c-14.137,0-25.6-11.463-25.6-25.6c0-14.137,11.463-25.6,25.6-25.6c14.137,0,25.6,11.463,25.6,25.6
				C371.202,176.274,359.739,187.737,345.602,187.737z"/>
		</g>
	</g>
</g>
</svg>