<?xml version="1.0" encoding="iso-8859-1"?>
<!-- Uploaded to: SVG Repo, www.svgrepo.com, Generator: SVG Repo Mixer Tools -->
<svg fill="#000000" height="800px" width="800px" version="1.1" id="Capa_1" xmlns="http://www.w3.org/2000/svg" xmlns:xlink="http://www.w3.org/1999/xlink" 
	 viewBox="0 0 64 64" xml:space="preserve">
<g>
	<g id="team-teamwork-coworker-colleague-leader_1_">
		<path d="M21,20v2c0,2.414,1.721,4.434,4,4.899V32c0,1.902,0.765,3.627,2,4.889V37c0.034,0,0.066-0.009,0.099-0.01
			C28.363,38.231,30.093,39,32,39c3.86,0,7-3.141,7-7v-1v-7c0-2.757-2.243-5-5-5H22C21.448,19,21,19.447,21,20z M32,37
			c-0.915,0-1.762-0.265-2.5-0.696C30.987,35.437,32,33.842,32,32h-2c0,1.339-0.887,2.462-2.101,2.847
			C27.336,34.038,27,33.059,27,32v-5h6c0,2.414,1.721,4.434,4,4.899V32C37,34.757,34.757,37,32,37z M23,21h11c1.654,0,3,1.346,3,3
			v5.829c-1.164-0.413-2-1.525-2-2.829v-1c0-0.553-0.448-1-1-1h-8c-1.654,0-3-1.346-3-3V21z"/>
		<path d="M61.31,55c1.62-1.076,2.69-2.914,2.69-5c0-3.309-2.691-6-6-6c-2.086,0-3.924,1.071-5,2.69C51.924,45.07,50.086,44,48,44
			c-0.792,0-1.553,0.169-2.267,0.462C45.08,42.46,43.217,41,41,41H24.303l-5.527-3.685L14.618,29H16v-2h-3h-1v-8.08
			c1.502-0.216,2.853-0.906,3.889-1.92H17c2.757,0,5-2.243,5-5v-2c0-0.553-0.448-1-1-1h-3V8c0-0.553-0.448-1-1-1H5
			C4.448,7,4,7.447,4,8v1H1c-0.552,0-1,0.447-1,1v2c0,2.757,2.243,5,5,5h1.111c1.037,1.014,2.387,1.704,3.889,1.92V27H8H6v2h1.341
			l5.74,13.394c0.071,0.166,0.185,0.31,0.331,0.415l1.732,1.26c-1.727,0.248-3.219,1.229-4.144,2.622C9.924,45.071,8.086,44,6,44
			c-3.309,0-6,2.691-6,6c0,2.086,1.071,3.924,2.69,5C1.071,56.076,0,57.914,0,60v4h2v-4c0-2.206,1.794-4,4-4s4,1.794,4,4v4h2v-4
			c0-2.206,1.794-4,4-4s4,1.794,4,4v4h2v-4c0-2.086-1.071-3.924-2.69-5c1.62-1.076,2.69-2.914,2.69-5
			c0-0.346-0.036-0.683-0.092-1.013L24,50.509V63c0,0.553,0.448,1,1,1h20c0.552,0,1-0.447,1-1v-6.453C46.606,56.194,47.286,56,48,56
			c2.206,0,4,1.794,4,4v4h2v-4c0-2.206,1.794-4,4-4s4,1.794,4,4v4h2v-4C64,57.914,62.929,56.076,61.31,55z M20,11v1
			c0,1.541-1.172,2.799-2.669,2.967C17.756,14.064,18,13.061,18,12v-1H20z M2,12v-1h2v1c0,1.061,0.244,2.064,0.669,2.967
			C3.172,14.799,2,13.541,2,12z M6,12V9h10v3c0,2.757-2.243,5-5,5S6,14.757,6,12z M2,50c0-2.206,1.794-4,4-4s4,1.794,4,4
			s-1.794,4-4,4S2,52.206,2,50z M11,56.69c-0.445-0.67-1.02-1.245-1.69-1.69c0.67-0.445,1.245-1.02,1.69-1.69
			c0.445,0.67,1.02,1.245,1.69,1.69C12.02,55.445,11.445,56.02,11,56.69z M16,54c-2.206,0-4-1.794-4-4s1.794-4,4-4s4,1.794,4,4
			S18.206,54,16,54z M58,46c2.206,0,4,1.794,4,4s-1.794,4-4,4s-4-1.794-4-4S55.794,46,58,46z M52,50c0,2.206-1.794,4-4,4
			c-0.714,0-1.394-0.194-2-0.546v-6.908C46.606,46.194,47.286,46,48,46C50.206,46,52,47.794,52,50z M31,47.324L29.428,43H31V47.324z
			 M33,43h1.572L33,47.324V43z M44,62h-4V48h-2v14H26V50c0-0.32-0.153-0.62-0.412-0.809L14.81,41.353L9.517,29h2.865l4.724,9.447
			c0.078,0.155,0.195,0.288,0.34,0.385l6,4C23.609,42.941,23.803,43,24,43h3.299l3.761,10.342C31.204,53.737,31.58,54,32,54
			c0.42,0,0.796-0.263,0.94-0.658L36.701,43H41c1.654,0,3,1.346,3,3V62z M53,56.69c-0.445-0.67-1.02-1.245-1.69-1.69
			c0.67-0.445,1.245-1.02,1.69-1.69c0.445,0.67,1.02,1.245,1.69,1.69C54.02,55.445,53.445,56.02,53,56.69z"/>
		<polygon points="27,8 29,8 29,5 32,5 32,3 29,3 29,0 27,0 27,3 24,3 24,5 27,5 		"/>
	</g>
	<g id="Layer_1_28_">
	</g>
</g>
</svg>