<?xml version="1.0" ?>
<!DOCTYPE svg  PUBLIC '-//W3C//DTD SVG 1.1//EN'  'http://www.w3.org/Graphics/SVG/1.1/DTD/svg11.dtd'>
<!-- Uploaded to: SVG Repo, www.svgrepo.com, Generator: SVG Repo Mixer Tools -->
<svg fill="#000000" width="800px" height="800px" viewBox="0 0 846.66 846.66" style="shape-rendering:geometricPrecision; text-rendering:geometricPrecision; image-rendering:optimizeQuality; fill-rule:evenodd; clip-rule:evenodd" version="1.1" xml:space="preserve" xmlns="http://www.w3.org/2000/svg" xmlns:xlink="http://www.w3.org/1999/xlink">
<defs>
<style type="text/css">
   <![CDATA[
    .fil0 {fill:black;fill-rule:nonzero}
   ]]>
  </style>
</defs>
<g id="Layer_x0020_1">
<path class="fil0" d="M127.22 34.34c64.81,0 117.75,52.95 117.75,117.75l0 542.47c0,64.81 -52.94,117.75 -117.75,117.75 -64.81,0 -117.76,-52.94 -117.76,-117.75l0 -542.47c0,-64.8 52.95,-117.75 117.76,-117.75zm295.8 550.43c16.83,0 30.48,13.64 30.48,30.48 0,16.83 -13.65,30.48 -30.48,30.48 -16.84,0 -30.48,-13.65 -30.48,-30.48 0,-16.84 13.64,-30.48 30.48,-30.48zm274.34 0c16.83,0 30.48,13.64 30.48,30.48 0,16.83 -13.65,30.48 -30.48,30.48 -16.83,0 -30.48,-13.65 -30.48,-30.48 0,-16.84 13.65,-30.48 30.48,-30.48zm-137.17 0c16.83,0 30.48,13.64 30.48,30.48 0,16.83 -13.65,30.48 -30.48,30.48 -16.84,0 -30.48,-13.65 -30.48,-30.48 0,-16.84 13.64,-30.48 30.48,-30.48zm-137.17 -231.84c16.83,0 30.48,13.65 30.48,30.48 0,16.84 -13.65,30.48 -30.48,30.48 -16.84,0 -30.48,-13.64 -30.48,-30.48 0,-16.83 13.64,-30.48 30.48,-30.48zm274.34 0c16.83,0 30.48,13.65 30.48,30.48 0,16.84 -13.65,30.48 -30.48,30.48 -16.83,0 -30.48,-13.64 -30.48,-30.48 0,-16.83 13.65,-30.48 30.48,-30.48zm-137.17 0c16.83,0 30.48,13.65 30.48,30.48 0,16.84 -13.65,30.48 -30.48,30.48 -16.84,0 -30.48,-13.64 -30.48,-30.48 0,-16.83 13.64,-30.48 30.48,-30.48zm-137.17 115.92c16.83,0 30.48,13.64 30.48,30.48 0,16.83 -13.65,30.48 -30.48,30.48 -16.84,0 -30.48,-13.65 -30.48,-30.48 0,-16.84 13.64,-30.48 30.48,-30.48zm274.34 0c16.83,0 30.48,13.64 30.48,30.48 0,16.83 -13.65,30.48 -30.48,30.48 -16.83,0 -30.48,-13.65 -30.48,-30.48 0,-16.84 13.65,-30.48 30.48,-30.48zm-137.17 0c16.83,0 30.48,13.64 30.48,30.48 0,16.83 -13.65,30.48 -30.48,30.48 -16.84,0 -30.48,-13.65 -30.48,-30.48 0,-16.84 13.64,-30.48 30.48,-30.48zm-154.28 -288.63l308.56 0c11.43,0 20.7,9.28 20.7,20.71l0 97.05c0,11.43 -9.27,20.7 -20.7,20.7l-308.56 0c-11.43,0 -20.7,-9.27 -20.7,-20.7l0 -97.05c0,-11.43 9.27,-20.71 20.7,-20.71zm287.85 41.42l-267.14 0 0 55.63 267.14 0 0 -55.63zm102.03 -98.61l-471.2 0 0 600.59 471.2 0 0 -600.59zm-491.9 -41.41l512.6 0c11.44,0 20.71,9.28 20.71,20.71l0 642c0,11.43 -9.27,20.7 -20.71,20.7l-512.6 0c-11.44,0 -20.71,-9.27 -20.71,-20.7l0 -642c0,-11.43 9.27,-20.71 20.71,-20.71zm-176.67 -5.86c-41.95,0 -76.34,34.39 -76.34,76.33l0 542.47c0,41.95 34.39,76.34 76.34,76.34 41.94,0 76.34,-34.39 76.34,-76.34l0 -542.47c0,-41.94 -34.4,-76.33 -76.34,-76.33z"/>
</g>
</svg>