<svg id="Group_15651" data-name="Group 15651" xmlns="http://www.w3.org/2000/svg" xmlns:xlink="http://www.w3.org/1999/xlink" width="50.169" height="55.927" viewBox="0 0 50.169 55.927">
  <defs>
    <clipPath id="clip-path">
      <rect id="Rectangle_6697" data-name="Rectangle 6697" width="50.169" height="55.927" fill="#b20030"/>
    </clipPath>
  </defs>
  <g id="Group_15651-2" data-name="Group 15651" clip-path="url(#clip-path)">
    <path id="Path_43484" data-name="Path 43484" d="M58.412,82.413c-.4,0-.806,0-1.2,0h-.23a2.615,2.615,0,0,1-2.829-2.5q-.57-4.706-1.127-9.414L51.937,61.38l-.175,0A3.935,3.935,0,0,1,48.926,60a4.052,4.052,0,0,1-.967-3.1c.514-4.485,1.046-9.217,1.674-14.89a3.735,3.735,0,0,1,3.588-3.461c1.874-.06,3.773-.059,5.61-.059q.851,0,1.7,0h.172c.833,0,1.7-.005,2.557.056a3.705,3.705,0,0,1,3.508,3.341c.652,5.669,1.21,10.63,1.707,15.166a3.834,3.834,0,0,1-.92,2.94,3.961,3.961,0,0,1-2.824,1.379c-.081,0-.162.006-.244.007l-.02.16c-.089.7-.177,1.394-.26,2.087q-.813,6.78-1.619,13.56c-.1.812-.207,1.757-.3,2.687a2.653,2.653,0,0,1-2.755,2.532c-.373,0-.748.007-1.121.007M52.768,59.507H53.6l1.285,10.767q.56,4.706,1.127,9.41c.08.658.3.849.98.852h.231c.763,0,1.525.007,2.288,0,.6-.008.857-.246.918-.85.1-.946.208-1.9.305-2.719q.807-6.782,1.619-13.562c.084-.7.172-1.4.262-2.1l.227-1.8h.826l.381,0c.218,0,.412,0,.607,0a2.085,2.085,0,0,0,1.485-.728,1.98,1.98,0,0,0,.48-1.517c-.5-4.533-1.054-9.49-1.706-15.156a1.835,1.835,0,0,0-1.782-1.688c-.792-.056-1.619-.054-2.418-.051H60.54q-.855,0-1.71,0c-1.824,0-3.707,0-5.55.058a1.879,1.879,0,0,0-1.787,1.8c-.629,5.675-1.161,10.409-1.675,14.9a2.177,2.177,0,0,0,.524,1.663,2.033,2.033,0,0,0,1.481.727c.184.006.368,0,.578,0Z" transform="translate(-32.984 -26.486)" fill="#b20030"/>
    <path id="Path_43485" data-name="Path 43485" d="M9.794,81.925c-.465,0-.944-.011-1.444-.034a2.566,2.566,0,0,1-2.5-2.437q-.85-7.2-1.716-14.4L3.782,62.1a6.068,6.068,0,0,1-1.572-.37A3.719,3.719,0,0,1,.042,57.518c.493-4.267,1.018-8.84,1.516-13.377a3.8,3.8,0,0,1,3.981-3.763c2.541-.044,5.118-.027,7.611-.01l.9.006a4.7,4.7,0,0,1,1.029.148c.076.017.144.034.2.044l.887.154-.12.892c-.065.488-.132.967-.2,1.441-.143,1.026-.277,2-.393,2.977-.459,3.894-.861,7.4-1.228,10.733-.02.183-.044.367-.068.551a3.849,3.849,0,0,0,.192,2.521,3.323,3.323,0,0,0,.591.808,2.077,2.077,0,0,1,.722,1.985c-.4,3.253-.8,6.564-1.176,9.765l-.2,1.654q-.137,1.153-.269,2.307c-.124,1.074-.248,2.148-.378,3.221a2.543,2.543,0,0,1-2.487,2.314c-.447.023-.9.035-1.37.035M5.51,61.039a1.617,1.617,0,0,1,.064.287l.42,3.507q.862,7.2,1.717,14.4c.079.667.395.773.725.787.942.043,1.8.043,2.633,0a.674.674,0,0,0,.725-.671c.13-1.069.254-2.139.377-3.209q.133-1.156.269-2.313l.2-1.653c.379-3.2.772-6.518,1.177-9.776.029-.238.023-.243-.077-.329a4.816,4.816,0,0,1-.991-1.285,5.458,5.458,0,0,1-.435-3.711c.022-.172.045-.344.064-.515.368-3.333.77-6.848,1.23-10.747.118-1,.254-1.979.4-3.016l.076-.55h-.035l-.9-.006c-2.482-.016-5.048-.033-7.566.01-1.369.024-1.993.631-2.154,2.1-.5,4.541-1.024,9.118-1.517,13.387-.181,1.565.508,2.048,1.042,2.275a4.6,4.6,0,0,0,1.108.24c.24.034.485.069.732.116l.582.112Z" transform="translate(0 -27.766)" fill="#b20030"/>
    <path id="Path_43486" data-name="Path 43486" d="M115.814,81.918q-.767,0-1.507-.056a2.354,2.354,0,0,1-2.2-2.268q-.712-5.947-1.42-11.894l-.481-4.04c-.006-.049-.009-.1-.019-.145a2.305,2.305,0,0,1,.908-2.6,3.009,3.009,0,0,0,1.079-2.868c-.44-4.209-.952-8.826-1.61-14.53a7.579,7.579,0,0,0-.279-1.183c-.065-.227-.132-.457-.192-.695l-.267-1.057,1.085-.1c.076-.007.158-.017.244-.028a6.826,6.826,0,0,1,.822-.065q1.647-.005,3.293,0c1.586,0,3.171,0,4.757-.008h.039a3.961,3.961,0,0,1,4.108,3.711c.424,4.335.926,8.792,1.536,13.628a3.976,3.976,0,0,1-.86,3.026,3.723,3.723,0,0,1-2.665,1.345l-.232.015-.047.39q-.153,1.264-.3,2.527l-1.41,11.8c-.113.946-.225,1.892-.346,2.838a2.291,2.291,0,0,1-2.1,2.181c-.652.057-1.3.085-1.931.085m-3.6-39.663a7.046,7.046,0,0,1,.215,1.046c.659,5.711,1.171,10.334,1.612,14.549a4.8,4.8,0,0,1-1.832,4.571c-.254.187-.287.211-.183.717.022.105.035.212.046.319l.008.071.471,3.951q.708,5.947,1.419,11.893c.071.594.308.612.48.624a19.33,19.33,0,0,0,3.134-.028c.154-.013.345-.03.411-.552.119-.941.231-1.882.344-2.824l1.41-11.8q.151-1.265.3-2.53l.232-1.921,1.13-.081c.232-.017.444-.033.657-.046a1.842,1.842,0,0,0,1.341-.67,2.1,2.1,0,0,0,.445-1.6c-.612-4.853-1.116-9.328-1.542-13.68a2.094,2.094,0,0,0-2.245-2.022h-.025c-1.591.012-3.182.01-4.773.008q-1.53,0-3.06,0" transform="translate(-75.576 -27.783)" fill="#b20030"/>
    <path id="Path_43487" data-name="Path 43487" d="M67.77,11.9h-.028A6.04,6.04,0,0,1,61.82,5.936a5.955,5.955,0,0,1,11.91-.029,6.048,6.048,0,0,1-5.96,6M67.758,1.871a4.08,4.08,0,0,0-4.067,4.068,4.142,4.142,0,0,0,4.06,4.093h.019a4.178,4.178,0,0,0,4.088-4.109,4.151,4.151,0,0,0-4.094-4.052Z" transform="translate(-42.54 0)" fill="#b20030"/>
    <path id="Path_43488" data-name="Path 43488" d="M18.757,16.134a5.664,5.664,0,1,1-.041-11.327h.035a5.732,5.732,0,0,1,5.683,5.672,5.753,5.753,0,0,1-5.654,5.656Zm.016-1.871,0,.936,0-.936a3.854,3.854,0,0,0,3.79-3.787,3.745,3.745,0,0,0-1.132-2.669,3.785,3.785,0,0,0-2.68-1.129h-.023a3.859,3.859,0,0,0-3.786,3.791,3.746,3.746,0,0,0,1.122,2.669,3.818,3.818,0,0,0,2.709,1.125" transform="translate(-8.994 -3.308)" fill="#b20030"/>
    <path id="Path_43489" data-name="Path 43489" d="M117.076,16.133a5.657,5.657,0,1,1,.011,0Zm-.01-9.456h0a3.792,3.792,0,0,0,.01,7.585h.008a3.792,3.792,0,0,0-.01-7.585Z" transform="translate(-76.665 -3.307)" fill="#b20030"/>
  </g>
</svg>
