<?xml version="1.0" encoding="UTF-8"?>
<svg xmlns="http://www.w3.org/2000/svg" xmlns:xlink="http://www.w3.org/1999/xlink" width="268px" height="300px" viewBox="0 0 268 300" version="1.1">
<defs>
<clipPath id="clip1">
  <path d="M 80 64 L 191 64 L 191 299.609375 L 80 299.609375 Z M 80 64 "/>
</clipPath>
</defs>
<g id="surface1">
<g clip-path="url(#clip1)" clip-rule="nonzero">
<path style=" stroke:none;fill-rule:nonzero;fill:rgb(69.803922%,0%,18.823529%);fill-opacity:1;" d="M 136.292969 299.609375 C 134.148438 299.609375 131.972656 299.609375 129.863281 299.609375 L 128.628906 299.609375 C 124.824219 299.925781 121.050781 298.671875 118.1875 296.144531 C 115.328125 293.617188 113.621094 290.03125 113.464844 286.214844 C 111.429688 269.410156 109.414062 252.597656 107.425781 235.785156 L 101.589844 186.933594 L 100.648438 186.933594 C 94.773438 186.695312 89.261719 184.015625 85.449219 179.539062 C 81.480469 174.96875 79.601562 168.949219 80.265625 162.933594 C 83.019531 138.90625 85.871094 113.554688 89.238281 83.164062 C 89.980469 72.988281 98.265625 64.996094 108.46875 64.625 C 118.515625 64.300781 128.695312 64.308594 138.539062 64.308594 C 141.582031 64.308594 144.617188 64.308594 147.652344 64.308594 L 148.574219 64.308594 C 153.039062 64.308594 157.6875 64.28125 162.28125 64.605469 C 172.121094 65.085938 180.125 72.703125 181.082031 82.503906 C 184.578125 112.875 187.566406 139.453125 190.230469 163.75 C 190.863281 169.460938 189.074219 175.171875 185.300781 179.5 C 181.488281 183.945312 176.011719 186.617188 170.164062 186.890625 C 169.730469 186.890625 169.296875 186.921875 168.855469 186.925781 L 168.75 187.785156 C 168.273438 191.535156 167.800781 195.25 167.355469 198.964844 C 164.449219 223.179688 161.558594 247.394531 158.675781 271.605469 C 158.140625 275.957031 157.566406 281.019531 157.070312 286 C 156.71875 293.8125 150.121094 299.875 142.300781 299.566406 C 140.304688 299.566406 138.292969 299.605469 136.292969 299.605469 M 106.042969 176.898438 L 110.5 176.898438 L 117.390625 234.578125 C 119.390625 251.386719 121.402344 268.1875 123.429688 284.988281 C 123.859375 288.515625 125.039062 289.539062 128.683594 289.554688 L 129.921875 289.554688 C 134.011719 289.554688 138.09375 289.589844 142.183594 289.554688 C 145.402344 289.511719 146.777344 288.234375 147.105469 285 C 147.640625 279.933594 148.21875 274.820312 148.738281 270.433594 C 151.625 246.210938 154.515625 221.996094 157.417969 197.78125 C 157.867188 194.03125 158.339844 190.28125 158.820312 186.53125 L 160.039062 176.886719 L 166.507812 176.886719 C 167.675781 176.886719 168.714844 176.886719 169.761719 176.886719 C 172.839844 176.738281 175.71875 175.328125 177.722656 172.988281 C 179.679688 170.757812 180.613281 167.808594 180.292969 164.859375 C 177.613281 140.578125 174.644531 114.019531 171.148438 83.667969 C 170.75 78.65625 166.628906 74.753906 161.597656 74.625 C 157.355469 74.324219 152.921875 74.335938 148.636719 74.351562 L 147.699219 74.351562 C 144.644531 74.351562 141.589844 74.351562 138.535156 74.351562 C 128.757812 74.351562 118.664062 74.351562 108.785156 74.664062 C 103.578125 74.914062 99.421875 79.097656 99.207031 84.304688 C 95.835938 114.707031 92.984375 140.066406 90.230469 164.125 C 89.882812 167.359375 90.902344 170.585938 93.039062 173.035156 C 95.015625 175.398438 97.898438 176.8125 100.976562 176.929688 C 101.964844 176.960938 102.949219 176.929688 104.074219 176.929688 Z M 106.042969 176.898438 "/>
</g>
<path style=" stroke:none;fill-rule:nonzero;fill:rgb(69.803922%,0%,18.823529%);fill-opacity:1;" d="M 52.496094 290.136719 C 50.003906 290.136719 47.4375 290.078125 44.757812 289.957031 C 37.558594 289.777344 31.714844 284.085938 31.355469 276.898438 C 28.320312 251.1875 25.253906 225.472656 22.160156 199.757812 L 20.273438 183.933594 C 17.386719 183.648438 14.554688 182.984375 11.84375 181.949219 C 3.058594 178.1875 -1.816406 168.71875 0.226562 159.386719 C 2.867188 136.527344 5.679688 112.027344 8.351562 87.722656 C 8.398438 82.1875 10.699219 76.90625 14.726562 73.105469 C 18.753906 69.300781 24.15625 67.300781 29.6875 67.5625 C 43.308594 67.328125 57.121094 67.417969 70.484375 67.511719 L 75.308594 67.542969 C 77.171875 67.601562 79.019531 67.867188 80.824219 68.335938 C 81.230469 68.425781 81.59375 68.519531 81.894531 68.570312 L 86.648438 69.394531 L 86.007812 74.175781 C 85.65625 76.789062 85.300781 79.355469 84.933594 81.894531 C 84.167969 87.390625 83.449219 92.609375 82.828125 97.84375 C 80.367188 118.703125 78.214844 137.484375 76.246094 155.339844 C 76.140625 156.320312 76.011719 157.308594 75.882812 158.292969 C 74.691406 162.78125 75.054688 167.539062 76.910156 171.796875 C 77.742188 173.394531 78.808594 174.851562 80.078125 176.125 C 83.210938 178.703125 84.691406 182.777344 83.949219 186.761719 C 81.804688 204.1875 79.660156 221.925781 77.644531 239.074219 L 76.574219 247.933594 C 76.082031 252.050781 75.601562 256.171875 75.132812 260.292969 C 74.464844 266.046875 73.800781 271.800781 73.105469 277.546875 C 72.480469 284.476562 66.734375 289.820312 59.773438 289.945312 C 57.378906 290.066406 54.949219 290.132812 52.429688 290.132812 M 29.535156 178.25 C 29.695312 178.75 29.808594 179.265625 29.875 179.785156 L 32.128906 198.574219 C 35.207031 224.289062 38.277344 250 41.332031 275.714844 C 41.753906 279.289062 43.449219 279.855469 45.21875 279.933594 C 50.265625 280.164062 54.863281 280.164062 59.328125 279.933594 C 60.332031 280.007812 61.320312 279.664062 62.058594 278.980469 C 62.792969 278.300781 63.214844 277.339844 63.214844 276.335938 C 63.914062 270.609375 64.578125 264.878906 65.238281 259.144531 C 65.710938 255.019531 66.191406 250.886719 66.679688 246.753906 L 67.75 237.898438 C 69.78125 220.757812 71.886719 202.980469 74.058594 185.527344 C 74.214844 184.253906 74.183594 184.226562 73.644531 183.765625 C 71.5 181.789062 69.703125 179.460938 68.335938 176.882812 C 65.242188 170.734375 64.414062 163.695312 66.003906 157 C 66.121094 156.082031 66.246094 155.160156 66.347656 154.242188 C 68.320312 136.386719 70.472656 117.558594 72.9375 96.667969 C 73.570312 91.3125 74.300781 86.066406 75.082031 80.511719 L 75.492188 77.566406 L 75.300781 77.566406 L 70.480469 77.535156 C 57.175781 77.449219 43.421875 77.355469 29.925781 77.585938 C 22.585938 77.714844 19.242188 80.96875 18.378906 88.835938 C 15.699219 113.164062 12.890625 137.683594 10.25 160.554688 C 9.277344 168.9375 12.972656 171.523438 15.832031 172.742188 C 17.753906 173.414062 19.746094 173.84375 21.773438 174.027344 C 23.058594 174.207031 24.371094 174.394531 25.695312 174.648438 L 28.816406 175.25 Z M 29.535156 178.25 "/>
<path style=" stroke:none;fill-rule:nonzero;fill:rgb(69.803922%,0%,18.823529%);fill-opacity:1;" d="M 215.675781 290.007812 C 212.933594 290.007812 210.242188 289.910156 207.597656 289.707031 C 201.128906 289.289062 196.03125 284.035156 195.804688 277.558594 C 193.261719 256.320312 190.726562 235.082031 188.195312 213.839844 L 185.617188 192.199219 C 185.585938 191.9375 185.570312 191.664062 185.515625 191.421875 C 183.878906 186.214844 185.859375 180.550781 190.382812 177.492188 C 194.96875 173.808594 197.1875 167.921875 196.164062 162.128906 C 193.808594 139.582031 191.0625 114.847656 187.535156 84.289062 C 187.207031 82.140625 186.707031 80.019531 186.039062 77.953125 C 185.691406 76.734375 185.332031 75.503906 185.011719 74.230469 L 183.578125 68.566406 L 189.394531 68.03125 C 189.804688 67.992188 190.242188 67.9375 190.703125 67.878906 C 192.164062 67.675781 193.636719 67.558594 195.109375 67.53125 C 200.996094 67.515625 206.878906 67.515625 212.761719 67.53125 C 221.261719 67.53125 229.757812 67.53125 238.257812 67.488281 L 238.464844 67.488281 C 249.988281 67.039062 259.765625 75.867188 260.484375 87.371094 C 262.757812 110.59375 265.449219 134.46875 268.71875 160.375 C 269.476562 166.183594 267.808594 172.046875 264.109375 176.585938 C 260.5625 180.875 255.382812 183.488281 249.824219 183.792969 L 248.582031 183.875 L 248.328125 185.960938 C 247.78125 190.476562 247.246094 194.988281 246.722656 199.5 L 239.164062 262.714844 C 238.558594 267.78125 237.957031 272.851562 237.308594 277.917969 C 237.03125 284.089844 232.210938 289.09375 226.050781 289.601562 C 222.558594 289.90625 219.085938 290.058594 215.703125 290.058594 M 196.40625 77.578125 C 196.933594 79.414062 197.316406 81.285156 197.558594 83.179688 C 201.089844 113.773438 203.835938 138.542969 206.199219 161.121094 C 207.683594 170.46875 203.910156 179.875 196.378906 185.609375 C 195.019531 186.609375 194.839844 186.738281 195.398438 189.449219 C 195.515625 190.011719 195.585938 190.585938 195.644531 191.160156 L 195.6875 191.539062 L 198.210938 212.707031 C 200.742188 233.945312 203.277344 255.183594 205.820312 276.417969 C 206.199219 279.601562 207.46875 279.695312 208.390625 279.761719 C 213.984375 280.164062 219.605469 280.113281 225.191406 279.609375 C 226.015625 279.542969 227.039062 279.449219 227.394531 276.652344 C 228.03125 271.613281 228.628906 266.570312 229.238281 261.523438 L 236.792969 198.3125 C 237.332031 193.792969 237.871094 189.273438 238.402344 184.757812 L 239.644531 174.464844 L 245.703125 174.03125 C 246.945312 173.941406 248.082031 173.855469 249.222656 173.785156 C 252.019531 173.660156 254.632812 172.355469 256.410156 170.195312 C 258.351562 167.789062 259.214844 164.6875 258.796875 161.625 C 255.515625 135.625 252.816406 111.652344 250.53125 88.339844 C 250.433594 85.285156 249.097656 82.40625 246.824219 80.359375 C 244.554688 78.316406 241.546875 77.285156 238.5 77.507812 L 238.363281 77.507812 C 229.835938 77.570312 221.308594 77.5625 212.78125 77.550781 C 207.3125 77.550781 201.847656 77.550781 196.378906 77.550781 "/>
<path style=" stroke:none;fill-rule:nonzero;fill:rgb(69.803922%,0%,18.823529%);fill-opacity:1;" d="M 135.234375 63.75 L 135.082031 63.75 C 117.609375 63.410156 103.558594 49.269531 103.339844 31.800781 C 103.296875 14.179688 117.554688 -0.136719 135.183594 -0.179688 C 152.808594 -0.222656 167.136719 14.027344 167.179688 31.644531 C 167.039062 49.257812 152.851562 63.53125 135.234375 63.789062 M 135.167969 10.023438 C 123.144531 10.0625 113.40625 19.796875 113.371094 31.816406 C 113.507812 43.800781 123.144531 53.507812 135.132812 53.742188 L 135.234375 53.742188 C 147.269531 53.484375 156.949219 43.761719 157.144531 31.730469 C 156.859375 19.773438 147.164062 10.183594 135.199219 10.023438 Z M 135.167969 10.023438 "/>
<path style=" stroke:none;fill-rule:nonzero;fill:rgb(69.803922%,0%,18.823529%);fill-opacity:1;" d="M 52.328125 68.710938 C 41.390625 68.890625 31.203125 63.175781 25.660156 53.75 C 20.117188 44.324219 20.074219 32.648438 25.550781 23.183594 C 31.023438 13.71875 41.171875 7.929688 52.109375 8.03125 L 52.296875 8.03125 C 69.039062 8.171875 82.582031 21.683594 82.757812 38.417969 C 82.480469 55.03125 69.074219 68.433594 52.453125 68.714844 Z M 52.414062 58.6875 L 52.414062 63.703125 L 52.414062 58.6875 C 63.550781 58.503906 72.539062 49.53125 72.730469 38.398438 C 72.710938 33.011719 70.523438 27.859375 66.664062 24.101562 C 62.871094 20.253906 57.699219 18.078125 52.296875 18.054688 L 52.175781 18.054688 C 41.042969 18.261719 32.074219 27.238281 31.882812 38.363281 C 31.886719 43.742188 34.054688 48.894531 37.894531 52.660156 C 41.738281 56.523438 46.964844 58.691406 52.414062 58.6875 "/>
<path style=" stroke:none;fill-rule:nonzero;fill:rgb(69.803922%,0%,18.823529%);fill-opacity:1;" d="M 216.601562 68.710938 C 199.863281 68.695312 186.304688 55.121094 186.3125 38.390625 C 186.320312 21.660156 199.890625 8.101562 216.632812 8.101562 C 233.371094 8.101562 246.945312 21.660156 246.953125 38.390625 C 246.960938 55.121094 233.402344 68.695312 216.660156 68.710938 Z M 216.550781 18.054688 C 205.324219 18.070312 196.234375 27.175781 196.25 38.398438 C 196.261719 49.617188 205.375 58.703125 216.601562 58.6875 L 216.644531 58.6875 C 227.871094 58.671875 236.960938 49.566406 236.945312 38.34375 C 236.933594 27.121094 227.820312 18.039062 216.59375 18.054688 Z M 216.550781 18.054688 "/>
</g>
</svg>
