<?xml version="1.0" encoding="UTF-8"?>
<svg xmlns="http://www.w3.org/2000/svg" xmlns:xlink="http://www.w3.org/1999/xlink" width="272px" height="346px" viewBox="0 0 272 346" version="1.1">
<g id="surface1">
<path style=" stroke:none;fill-rule:nonzero;fill:rgb(69.803922%,0%,18.823529%);fill-opacity:1;" d="M 44.609375 44.671875 L 254.789062 44.671875 L 254.789062 331.621094 L 44.609375 331.621094 Z M 29.597656 346 L 269.039062 346 L 269.039062 29.65625 L 29.597656 29.65625 Z M 29.597656 346 "/>
<path style=" stroke:none;fill-rule:nonzero;fill:rgb(69.803922%,0%,18.823529%);fill-opacity:1;" d="M 0 -0.0078125 L 246.765625 -0.0078125 C 247 4.492188 247.210938 8.601562 247.488281 14.042969 L 14.34375 14.042969 L 14.34375 323.421875 L 0 323.421875 Z M 0 -0.0078125 "/>
<path style=" stroke:none;fill-rule:nonzero;fill:rgb(69.803922%,0%,18.823529%);fill-opacity:1;" d="M 171.742188 205.320312 L 171.742188 285.691406 L 185.960938 285.691406 L 185.960938 175.652344 L 230.929688 175.652344 L 230.929688 223.078125 C 230.929688 238.179688 230.515625 253.289062 231.105469 268.371094 C 231.386719 275.371094 226.695312 284.707031 238.46875 288.28125 C 239.960938 288.730469 239.539062 295.496094 240.113281 300.289062 L 54.8125 300.289062 C 58.40625 295.671875 61.730469 290.855469 64.773438 285.859375 C 66.558594 282.539062 67.585938 278.863281 67.785156 275.101562 C 68.136719 261.878906 67.917969 248.636719 67.917969 234.570312 L 111.765625 234.570312 C 111.765625 247.785156 112.242188 260.933594 111.617188 274.03125 C 111.105469 284.84375 114.636719 289.136719 126.945312 284.9375 L 126.945312 205.320312 Z M 215.101562 285.742188 L 215.101562 189.476562 L 201.125 189.476562 C 201.125 217.46875 201.125 244.796875 201.125 272.121094 C 201.125 276.449219 201.515625 280.734375 201.742188 285.714844 Z M 156.769531 284.75 C 156.769531 266.628906 156.339844 248.53125 156.929688 230.472656 C 157.296875 219.425781 153.601562 215.835938 141.71875 220.394531 C 141.71875 238.640625 142.058594 257.1875 141.59375 275.710938 C 141.304688 287.230469 146.714844 288.101562 156.769531 284.75 M 82.433594 284.949219 C 93.246094 288.386719 98.976562 286.691406 97.828125 274.792969 C 97.378906 269.9375 97.378906 265.050781 97.828125 260.199219 C 99.015625 246.890625 92.566406 246.347656 82.460938 250.460938 Z M 82.433594 284.949219 "/>
<path style=" stroke:none;fill-rule:nonzero;fill:rgb(69.803922%,0%,18.823529%);fill-opacity:1;" d="M 204.007812 92.34375 L 186.964844 91.023438 L 186.964844 77.554688 L 228.058594 77.554688 L 228.058594 118.949219 L 216.097656 119.671875 C 215.535156 114.796875 215.046875 110.589844 214.378906 104.84375 C 211.855469 106.328125 209.445312 107.996094 207.171875 109.84375 C 200.511719 115.71875 194.230469 122.011719 188.371094 128.6875 C 169.363281 152.238281 147.523438 168.414062 114.808594 161.796875 C 110.105469 161.914062 105.648438 163.917969 102.445312 167.359375 C 93.5 175.945312 85.359375 185.363281 76.371094 195.019531 L 62.898438 182.179688 C 75.203125 171 86.519531 159.777344 98.953125 149.964844 C 103.8125 146.964844 109.613281 145.863281 115.234375 146.878906 C 139.960938 150.792969 158.59375 142.285156 173.757812 122.601562 C 183.1875 111.878906 193.289062 101.765625 204 92.328125 "/>
</g>
</svg>
