<?xml version="1.0" encoding="UTF-8"?>
<svg xmlns="http://www.w3.org/2000/svg" xmlns:xlink="http://www.w3.org/1999/xlink" width="272px" height="272px" viewBox="0 0 272 272" version="1.1">
<g id="surface1">
<path style=" stroke:none;fill-rule:nonzero;fill:rgb(69.803922%,0%,18.823529%);fill-opacity:1;" d="M 266.371094 239.089844 L 262.597656 239.089844 L 262.597656 46.085938 C 262.574219 32.863281 251.863281 22.148438 238.640625 22.125 L 232.425781 22.125 C 230.585938 14.570312 223.835938 9.242188 216.058594 9.214844 L 53.347656 9.214844 C 45.5625 9.222656 38.800781 14.558594 36.976562 22.125 L 33.308594 22.125 C 20.085938 22.144531 9.371094 32.859375 9.351562 46.085938 L 9.351562 239.089844 L 5.582031 239.089844 C 4.09375 239.089844 2.667969 239.6875 1.617188 240.746094 C 0.570312 241.800781 -0.0117188 243.234375 0 244.722656 L 0 257.152344 C -0.00390625 258.648438 0.589844 260.082031 1.648438 261.140625 C 2.703125 262.199219 4.136719 262.796875 5.632812 262.796875 L 266.371094 262.796875 C 269.484375 262.792969 272.003906 260.265625 272 257.152344 L 272 244.722656 C 272.007812 243.226562 271.417969 241.789062 270.359375 240.734375 C 269.300781 239.675781 267.867188 239.085938 266.371094 239.09375 Z M 53.339844 17.183594 L 216.113281 17.183594 C 219.519531 17.1875 222.628906 19.121094 224.136719 22.175781 L 45.371094 22.175781 C 46.863281 19.132812 49.949219 17.199219 53.339844 17.183594 Z M 17.265625 46.136719 C 17.28125 37.3125 24.429688 30.160156 33.257812 30.136719 L 238.714844 30.136719 C 247.535156 30.160156 254.683594 37.304688 254.703125 46.128906 L 254.703125 47.40625 L 17.265625 47.40625 Z M 227.539062 62.339844 C 217.6875 62.363281 209.710938 70.34375 209.6875 80.191406 L 209.6875 215.449219 C 209.710938 225.296875 217.6875 233.277344 227.539062 233.296875 L 254.683594 233.296875 L 254.683594 239.09375 L 139.933594 239.09375 L 139.933594 55.328125 L 254.683594 55.328125 L 254.683594 62.339844 Z M 254.738281 70.257812 L 254.738281 225.4375 L 227.589844 225.4375 C 222.109375 225.429688 217.667969 220.988281 217.660156 215.507812 L 217.660156 80.191406 C 217.667969 74.710938 222.109375 70.269531 227.589844 70.257812 Z M 17.265625 70.257812 L 44.414062 70.257812 C 49.894531 70.269531 54.335938 74.710938 54.347656 80.191406 L 54.347656 215.449219 C 54.34375 220.933594 49.902344 225.386719 44.414062 225.394531 L 17.265625 225.394531 Z M 17.265625 233.351562 L 44.414062 233.351562 C 54.261719 233.332031 62.242188 225.351562 62.265625 215.5 L 62.265625 80.191406 C 62.242188 70.34375 54.261719 62.363281 44.414062 62.339844 L 17.265625 62.339844 L 17.265625 55.332031 L 132.015625 55.332031 L 132.015625 239.09375 L 17.265625 239.09375 Z M 264.085938 254.867188 L 7.917969 254.867188 L 7.917969 247.058594 L 264.035156 247.058594 L 264.035156 254.867188 Z M 264.085938 254.867188 "/>
<path style=" stroke:none;fill-rule:nonzero;fill:rgb(69.803922%,0%,18.823529%);fill-opacity:1;" d="M 26.617188 85.078125 L 42.078125 85.078125 C 44.277344 85.078125 46.0625 83.292969 46.0625 81.09375 C 46.0625 78.890625 44.277344 77.105469 42.078125 77.105469 L 26.617188 77.105469 C 24.417969 77.105469 22.632812 78.890625 22.632812 81.09375 C 22.632812 83.292969 24.417969 85.078125 26.617188 85.078125 Z M 26.617188 85.078125 "/>
<path style=" stroke:none;fill-rule:nonzero;fill:rgb(69.803922%,0%,18.823529%);fill-opacity:1;" d="M 26.617188 99.902344 L 42.078125 99.902344 C 44.277344 99.902344 46.0625 98.117188 46.0625 95.917969 C 46.0625 93.714844 44.277344 91.929688 42.078125 91.929688 L 26.617188 91.929688 C 24.417969 91.929688 22.632812 93.714844 22.632812 95.917969 C 22.632812 98.117188 24.417969 99.902344 26.617188 99.902344 Z M 26.617188 99.902344 "/>
<path style=" stroke:none;fill-rule:nonzero;fill:rgb(69.803922%,0%,18.823529%);fill-opacity:1;" d="M 26.617188 114.722656 L 42.078125 114.722656 C 44.277344 114.722656 46.0625 112.9375 46.0625 110.734375 C 46.0625 108.535156 44.277344 106.75 42.078125 106.75 L 26.617188 106.75 C 24.417969 106.75 22.632812 108.535156 22.632812 110.734375 C 22.632812 112.9375 24.417969 114.722656 26.617188 114.722656 Z M 26.617188 114.722656 "/>
<path style=" stroke:none;fill-rule:nonzero;fill:rgb(69.803922%,0%,18.823529%);fill-opacity:1;" d="M 26.617188 129.542969 L 42.078125 129.542969 C 44.277344 129.542969 46.0625 127.761719 46.0625 125.558594 C 46.0625 123.359375 44.277344 121.574219 42.078125 121.574219 L 26.617188 121.574219 C 24.417969 121.574219 22.632812 123.359375 22.632812 125.558594 C 22.632812 127.761719 24.417969 129.542969 26.617188 129.542969 Z M 26.617188 129.542969 "/>
<path style=" stroke:none;fill-rule:nonzero;fill:rgb(69.803922%,0%,18.823529%);fill-opacity:1;" d="M 26.617188 144.363281 L 42.078125 144.363281 C 44.277344 144.363281 46.0625 142.578125 46.0625 140.378906 C 46.0625 138.175781 44.277344 136.394531 42.078125 136.394531 L 26.617188 136.394531 C 24.417969 136.394531 22.632812 138.175781 22.632812 140.378906 C 22.632812 142.578125 24.417969 144.363281 26.617188 144.363281 Z M 26.617188 144.363281 "/>
<path style=" stroke:none;fill-rule:nonzero;fill:rgb(69.803922%,0%,18.823529%);fill-opacity:1;" d="M 26.617188 159.1875 L 42.078125 159.1875 C 44.277344 159.1875 46.0625 157.402344 46.0625 155.203125 C 46.0625 153 44.277344 151.21875 42.078125 151.21875 L 26.617188 151.21875 C 24.417969 151.21875 22.632812 153 22.632812 155.203125 C 22.632812 157.402344 24.417969 159.1875 26.617188 159.1875 Z M 26.617188 159.1875 "/>
<path style=" stroke:none;fill-rule:nonzero;fill:rgb(69.803922%,0%,18.823529%);fill-opacity:1;" d="M 26.617188 174.011719 L 42.078125 174.011719 C 44.277344 174.011719 46.0625 172.226562 46.0625 170.027344 C 46.0625 167.824219 44.277344 166.042969 42.078125 166.042969 L 26.617188 166.042969 C 24.417969 166.042969 22.632812 167.824219 22.632812 170.027344 C 22.632812 172.226562 24.417969 174.011719 26.617188 174.011719 Z M 26.617188 174.011719 "/>
<path style=" stroke:none;fill-rule:nonzero;fill:rgb(69.803922%,0%,18.823529%);fill-opacity:1;" d="M 26.617188 188.832031 L 42.078125 188.832031 C 44.277344 188.832031 46.0625 187.046875 46.0625 184.847656 C 46.0625 182.644531 44.277344 180.859375 42.078125 180.859375 L 26.617188 180.859375 C 24.417969 180.859375 22.632812 182.644531 22.632812 184.847656 C 22.632812 187.046875 24.417969 188.832031 26.617188 188.832031 Z M 26.617188 188.832031 "/>
<path style=" stroke:none;fill-rule:nonzero;fill:rgb(69.803922%,0%,18.823529%);fill-opacity:1;" d="M 26.617188 203.707031 L 42.078125 203.707031 C 44.277344 203.707031 46.0625 201.925781 46.0625 199.722656 C 46.0625 197.523438 44.277344 195.738281 42.078125 195.738281 L 26.617188 195.738281 C 24.417969 195.738281 22.632812 197.523438 22.632812 199.722656 C 22.632812 201.925781 24.417969 203.707031 26.617188 203.707031 Z M 26.617188 203.707031 "/>
<path style=" stroke:none;fill-rule:nonzero;fill:rgb(69.803922%,0%,18.823529%);fill-opacity:1;" d="M 46.007812 214.542969 C 46.007812 213.488281 45.589844 212.472656 44.839844 211.726562 C 44.09375 210.980469 43.082031 210.5625 42.023438 210.5625 L 26.617188 210.5625 C 24.417969 210.5625 22.632812 212.347656 22.632812 214.546875 C 22.632812 216.75 24.417969 218.53125 26.617188 218.53125 L 42.078125 218.53125 C 44.257812 218.511719 46.015625 216.730469 46.007812 214.550781 Z M 46.007812 214.542969 "/>
<path style=" stroke:none;fill-rule:nonzero;fill:rgb(69.803922%,0%,18.823529%);fill-opacity:1;" d="M 75.703125 85.078125 L 119.054688 85.078125 C 121.253906 85.078125 123.039062 83.292969 123.039062 81.09375 C 123.039062 78.890625 121.253906 77.105469 119.054688 77.105469 L 75.703125 77.105469 C 73.503906 77.105469 71.71875 78.890625 71.71875 81.09375 C 71.71875 83.292969 73.503906 85.078125 75.703125 85.078125 Z M 75.703125 85.078125 "/>
<path style=" stroke:none;fill-rule:nonzero;fill:rgb(69.803922%,0%,18.823529%);fill-opacity:1;" d="M 75.703125 70.253906 L 119.054688 70.253906 C 121.253906 70.253906 123.039062 68.46875 123.039062 66.269531 C 123.039062 64.066406 121.253906 62.28125 119.054688 62.28125 L 75.703125 62.28125 C 73.503906 62.28125 71.71875 64.066406 71.71875 66.269531 C 71.71875 68.46875 73.503906 70.253906 75.703125 70.253906 Z M 75.703125 70.253906 "/>
<path style=" stroke:none;fill-rule:nonzero;fill:rgb(69.803922%,0%,18.823529%);fill-opacity:1;" d="M 75.703125 233.453125 L 119.054688 233.453125 C 121.253906 233.453125 123.039062 231.667969 123.039062 229.46875 C 123.039062 227.265625 121.253906 225.484375 119.054688 225.484375 L 75.703125 225.484375 C 73.503906 225.484375 71.71875 227.265625 71.71875 229.46875 C 71.71875 231.667969 73.503906 233.453125 75.703125 233.453125 Z M 75.703125 233.453125 "/>
<path style=" stroke:none;fill-rule:nonzero;fill:rgb(69.803922%,0%,18.823529%);fill-opacity:1;" d="M 75.703125 99.902344 L 119.054688 99.902344 C 121.253906 99.902344 123.039062 98.117188 123.039062 95.917969 C 123.039062 93.714844 121.253906 91.929688 119.054688 91.929688 L 75.703125 91.929688 C 73.503906 91.929688 71.71875 93.714844 71.71875 95.917969 C 71.71875 98.117188 73.503906 99.902344 75.703125 99.902344 Z M 75.703125 99.902344 "/>
<path style=" stroke:none;fill-rule:nonzero;fill:rgb(69.803922%,0%,18.823529%);fill-opacity:1;" d="M 75.703125 114.722656 L 119.054688 114.722656 C 121.253906 114.722656 123.039062 112.9375 123.039062 110.734375 C 123.039062 108.535156 121.253906 106.75 119.054688 106.75 L 75.703125 106.75 C 73.503906 106.75 71.71875 108.535156 71.71875 110.734375 C 71.71875 112.9375 73.503906 114.722656 75.703125 114.722656 Z M 75.703125 114.722656 "/>
<path style=" stroke:none;fill-rule:nonzero;fill:rgb(69.803922%,0%,18.823529%);fill-opacity:1;" d="M 75.703125 129.542969 L 119.054688 129.542969 C 121.253906 129.542969 123.039062 127.761719 123.039062 125.558594 C 123.039062 123.359375 121.253906 121.574219 119.054688 121.574219 L 75.703125 121.574219 C 73.503906 121.574219 71.71875 123.359375 71.71875 125.558594 C 71.71875 127.761719 73.503906 129.542969 75.703125 129.542969 Z M 75.703125 129.542969 "/>
<path style=" stroke:none;fill-rule:nonzero;fill:rgb(69.803922%,0%,18.823529%);fill-opacity:1;" d="M 75.703125 144.363281 L 119.054688 144.363281 C 121.253906 144.363281 123.039062 142.578125 123.039062 140.378906 C 123.039062 138.175781 121.253906 136.394531 119.054688 136.394531 L 75.703125 136.394531 C 73.503906 136.394531 71.71875 138.175781 71.71875 140.378906 C 71.71875 142.578125 73.503906 144.363281 75.703125 144.363281 Z M 75.703125 144.363281 "/>
<path style=" stroke:none;fill-rule:nonzero;fill:rgb(69.803922%,0%,18.823529%);fill-opacity:1;" d="M 75.703125 159.1875 L 119.054688 159.1875 C 121.253906 159.1875 123.039062 157.402344 123.039062 155.203125 C 123.039062 153 121.253906 151.21875 119.054688 151.21875 L 75.703125 151.21875 C 73.503906 151.21875 71.71875 153 71.71875 155.203125 C 71.71875 157.402344 73.503906 159.1875 75.703125 159.1875 Z M 75.703125 159.1875 "/>
<path style=" stroke:none;fill-rule:nonzero;fill:rgb(69.803922%,0%,18.823529%);fill-opacity:1;" d="M 75.703125 174.011719 L 119.054688 174.011719 C 121.253906 174.011719 123.039062 172.226562 123.039062 170.027344 C 123.039062 167.824219 121.253906 166.042969 119.054688 166.042969 L 75.703125 166.042969 C 73.503906 166.042969 71.71875 167.824219 71.71875 170.027344 C 71.71875 172.226562 73.503906 174.011719 75.703125 174.011719 Z M 75.703125 174.011719 "/>
<path style=" stroke:none;fill-rule:nonzero;fill:rgb(69.803922%,0%,18.823529%);fill-opacity:1;" d="M 75.703125 188.832031 L 119.054688 188.832031 C 121.253906 188.832031 123.039062 187.046875 123.039062 184.847656 C 123.039062 182.644531 121.253906 180.859375 119.054688 180.859375 L 75.703125 180.859375 C 73.503906 180.859375 71.71875 182.644531 71.71875 184.847656 C 71.71875 187.046875 73.503906 188.832031 75.703125 188.832031 Z M 75.703125 188.832031 "/>
<path style=" stroke:none;fill-rule:nonzero;fill:rgb(69.803922%,0%,18.823529%);fill-opacity:1;" d="M 75.703125 203.707031 L 119.054688 203.707031 C 121.253906 203.707031 123.039062 201.925781 123.039062 199.722656 C 123.039062 197.523438 121.253906 195.738281 119.054688 195.738281 L 75.703125 195.738281 C 74.648438 195.738281 73.632812 196.15625 72.886719 196.902344 C 72.136719 197.648438 71.71875 198.664062 71.71875 199.722656 C 71.753906 201.90625 73.515625 203.671875 75.703125 203.707031 Z M 75.703125 203.707031 "/>
<path style=" stroke:none;fill-rule:nonzero;fill:rgb(69.803922%,0%,18.823529%);fill-opacity:1;" d="M 75.703125 218.527344 L 119.054688 218.527344 C 121.253906 218.527344 123.039062 216.742188 123.039062 214.542969 C 123.039062 212.339844 121.253906 210.558594 119.054688 210.558594 L 75.703125 210.558594 C 74.648438 210.554688 73.632812 210.976562 72.886719 211.722656 C 72.136719 212.46875 71.71875 213.484375 71.71875 214.539062 C 71.753906 216.726562 73.515625 218.492188 75.703125 218.527344 Z M 75.703125 218.527344 "/>
<path style=" stroke:none;fill-rule:nonzero;fill:rgb(69.803922%,0%,18.823529%);fill-opacity:1;" d="M 225.992188 81.136719 C 225.992188 82.195312 226.410156 83.210938 227.160156 83.957031 C 227.90625 84.703125 228.917969 85.121094 229.976562 85.121094 L 245.4375 85.121094 C 247.636719 85.121094 249.421875 83.335938 249.421875 81.136719 C 249.421875 78.933594 247.636719 77.152344 245.4375 77.152344 L 229.980469 77.152344 C 228.917969 77.140625 227.898438 77.554688 227.148438 78.304688 C 226.398438 79.054688 225.980469 80.078125 225.992188 81.136719 Z M 225.992188 81.136719 "/>
<path style=" stroke:none;fill-rule:nonzero;fill:rgb(69.803922%,0%,18.823529%);fill-opacity:1;" d="M 245.386719 91.984375 L 229.925781 91.984375 C 227.726562 91.984375 225.941406 93.769531 225.941406 95.96875 C 225.941406 98.171875 227.726562 99.957031 229.925781 99.957031 L 245.386719 99.957031 C 247.589844 99.957031 249.371094 98.171875 249.371094 95.96875 C 249.371094 93.769531 247.589844 91.984375 245.386719 91.984375 Z M 245.386719 91.984375 "/>
<path style=" stroke:none;fill-rule:nonzero;fill:rgb(69.803922%,0%,18.823529%);fill-opacity:1;" d="M 245.386719 106.808594 L 229.925781 106.808594 C 227.726562 106.808594 225.941406 108.59375 225.941406 110.792969 C 225.941406 112.996094 227.726562 114.777344 229.925781 114.777344 L 245.386719 114.777344 C 247.589844 114.777344 249.371094 112.996094 249.371094 110.792969 C 249.371094 108.59375 247.589844 106.808594 245.386719 106.808594 Z M 245.386719 106.808594 "/>
<path style=" stroke:none;fill-rule:nonzero;fill:rgb(69.803922%,0%,18.823529%);fill-opacity:1;" d="M 245.386719 121.628906 L 229.925781 121.628906 C 227.726562 121.628906 225.941406 123.410156 225.941406 125.613281 C 225.941406 127.8125 227.726562 129.597656 229.925781 129.597656 L 245.386719 129.597656 C 247.589844 129.597656 249.371094 127.8125 249.371094 125.613281 C 249.371094 123.410156 247.589844 121.628906 245.386719 121.628906 Z M 245.386719 121.628906 "/>
<path style=" stroke:none;fill-rule:nonzero;fill:rgb(69.803922%,0%,18.823529%);fill-opacity:1;" d="M 245.386719 136.445312 L 229.925781 136.445312 C 227.726562 136.445312 225.941406 138.230469 225.941406 140.433594 C 225.941406 142.632812 227.726562 144.417969 229.925781 144.417969 L 245.386719 144.417969 C 247.589844 144.417969 249.371094 142.632812 249.371094 140.433594 C 249.371094 138.230469 247.589844 136.445312 245.386719 136.445312 Z M 245.386719 136.445312 "/>
<path style=" stroke:none;fill-rule:nonzero;fill:rgb(69.803922%,0%,18.823529%);fill-opacity:1;" d="M 245.386719 151.269531 L 229.925781 151.269531 C 227.726562 151.269531 225.941406 153.054688 225.941406 155.257812 C 225.941406 157.457031 227.726562 159.242188 229.925781 159.242188 L 245.386719 159.242188 C 247.589844 159.242188 249.371094 157.457031 249.371094 155.257812 C 249.371094 153.054688 247.589844 151.269531 245.386719 151.269531 Z M 245.386719 151.269531 "/>
<path style=" stroke:none;fill-rule:nonzero;fill:rgb(69.803922%,0%,18.823529%);fill-opacity:1;" d="M 245.386719 166.09375 L 229.925781 166.09375 C 227.726562 166.09375 225.941406 167.878906 225.941406 170.082031 C 225.941406 172.28125 227.726562 174.066406 229.925781 174.066406 L 245.386719 174.066406 C 247.589844 174.066406 249.371094 172.28125 249.371094 170.082031 C 249.371094 167.878906 247.589844 166.09375 245.386719 166.09375 Z M 245.386719 166.09375 "/>
<path style=" stroke:none;fill-rule:nonzero;fill:rgb(69.803922%,0%,18.823529%);fill-opacity:1;" d="M 245.386719 180.914062 L 229.925781 180.914062 C 227.726562 180.914062 225.941406 182.699219 225.941406 184.898438 C 225.941406 187.101562 227.726562 188.882812 229.925781 188.882812 L 245.386719 188.882812 C 247.589844 188.882812 249.371094 187.101562 249.371094 184.898438 C 249.371094 182.699219 247.589844 180.914062 245.386719 180.914062 Z M 245.386719 180.914062 "/>
<path style=" stroke:none;fill-rule:nonzero;fill:rgb(69.803922%,0%,18.823529%);fill-opacity:1;" d="M 245.386719 195.738281 L 229.925781 195.738281 C 227.726562 195.738281 225.941406 197.523438 225.941406 199.722656 C 225.941406 201.925781 227.726562 203.707031 229.925781 203.707031 L 245.386719 203.707031 C 247.589844 203.707031 249.371094 201.925781 249.371094 199.722656 C 249.371094 197.523438 247.589844 195.738281 245.386719 195.738281 Z M 245.386719 195.738281 "/>
<path style=" stroke:none;fill-rule:nonzero;fill:rgb(69.803922%,0%,18.823529%);fill-opacity:1;" d="M 245.386719 210.558594 L 229.925781 210.558594 C 227.726562 210.558594 225.941406 212.339844 225.941406 214.542969 C 225.941406 216.742188 227.726562 218.527344 229.925781 218.527344 L 245.386719 218.527344 C 247.589844 218.527344 249.371094 216.742188 249.371094 214.542969 C 249.371094 212.339844 247.589844 210.558594 245.386719 210.558594 Z M 245.386719 210.558594 "/>
<path style=" stroke:none;fill-rule:nonzero;fill:rgb(69.803922%,0%,18.823529%);fill-opacity:1;" d="M 196.296875 77.160156 L 152.417969 77.160156 C 150.214844 77.160156 148.433594 78.945312 148.433594 81.144531 C 148.433594 83.347656 150.214844 85.132812 152.417969 85.132812 L 196.300781 85.132812 C 198.503906 85.132812 200.285156 83.347656 200.285156 81.144531 C 200.285156 78.945312 198.503906 77.160156 196.300781 77.160156 Z M 196.296875 77.160156 "/>
<path style=" stroke:none;fill-rule:nonzero;fill:rgb(69.803922%,0%,18.823529%);fill-opacity:1;" d="M 196.296875 62.339844 L 152.417969 62.339844 C 150.214844 62.339844 148.433594 64.125 148.433594 66.328125 C 148.433594 68.527344 150.214844 70.3125 152.417969 70.3125 L 196.300781 70.3125 C 198.503906 70.3125 200.285156 68.527344 200.285156 66.328125 C 200.285156 64.125 198.503906 62.339844 196.300781 62.339844 Z M 196.296875 62.339844 "/>
<path style=" stroke:none;fill-rule:nonzero;fill:rgb(69.803922%,0%,18.823529%);fill-opacity:1;" d="M 196.296875 225.542969 L 152.417969 225.542969 C 150.214844 225.542969 148.433594 227.324219 148.433594 229.527344 C 148.433594 231.726562 150.214844 233.511719 152.417969 233.511719 L 196.300781 233.511719 C 198.503906 233.511719 200.285156 231.726562 200.285156 229.527344 C 200.285156 227.324219 198.503906 225.542969 196.300781 225.542969 Z M 196.296875 225.542969 "/>
<path style=" stroke:none;fill-rule:nonzero;fill:rgb(69.803922%,0%,18.823529%);fill-opacity:1;" d="M 196.296875 91.984375 L 152.417969 91.984375 C 150.214844 91.984375 148.433594 93.769531 148.433594 95.96875 C 148.433594 98.171875 150.214844 99.957031 152.417969 99.957031 L 196.300781 99.957031 C 198.503906 99.957031 200.285156 98.171875 200.285156 95.96875 C 200.285156 93.769531 198.503906 91.984375 196.300781 91.984375 Z M 196.296875 91.984375 "/>
<path style=" stroke:none;fill-rule:nonzero;fill:rgb(69.803922%,0%,18.823529%);fill-opacity:1;" d="M 196.296875 106.808594 L 152.417969 106.808594 C 150.214844 106.808594 148.433594 108.59375 148.433594 110.792969 C 148.433594 112.996094 150.214844 114.777344 152.417969 114.777344 L 196.300781 114.777344 C 198.503906 114.777344 200.285156 112.996094 200.285156 110.792969 C 200.285156 108.59375 198.503906 106.808594 196.300781 106.808594 Z M 196.296875 106.808594 "/>
<path style=" stroke:none;fill-rule:nonzero;fill:rgb(69.803922%,0%,18.823529%);fill-opacity:1;" d="M 196.296875 121.628906 L 152.417969 121.628906 C 150.214844 121.628906 148.433594 123.410156 148.433594 125.613281 C 148.433594 127.8125 150.214844 129.597656 152.417969 129.597656 L 196.300781 129.597656 C 198.503906 129.597656 200.285156 127.8125 200.285156 125.613281 C 200.285156 123.410156 198.503906 121.628906 196.300781 121.628906 Z M 196.296875 121.628906 "/>
<path style=" stroke:none;fill-rule:nonzero;fill:rgb(69.803922%,0%,18.823529%);fill-opacity:1;" d="M 196.296875 136.445312 L 152.417969 136.445312 C 150.214844 136.445312 148.433594 138.230469 148.433594 140.433594 C 148.433594 142.632812 150.214844 144.417969 152.417969 144.417969 L 196.300781 144.417969 C 198.503906 144.417969 200.285156 142.632812 200.285156 140.433594 C 200.285156 138.230469 198.503906 136.445312 196.300781 136.445312 Z M 196.296875 136.445312 "/>
<path style=" stroke:none;fill-rule:nonzero;fill:rgb(69.803922%,0%,18.823529%);fill-opacity:1;" d="M 196.296875 151.269531 L 152.417969 151.269531 C 150.214844 151.269531 148.433594 153.054688 148.433594 155.257812 C 148.433594 157.457031 150.214844 159.242188 152.417969 159.242188 L 196.300781 159.242188 C 198.503906 159.242188 200.285156 157.457031 200.285156 155.257812 C 200.285156 153.054688 198.503906 151.269531 196.300781 151.269531 Z M 196.296875 151.269531 "/>
<path style=" stroke:none;fill-rule:nonzero;fill:rgb(69.803922%,0%,18.823529%);fill-opacity:1;" d="M 196.296875 166.09375 L 152.417969 166.09375 C 150.214844 166.09375 148.433594 167.878906 148.433594 170.082031 C 148.433594 172.28125 150.214844 174.066406 152.417969 174.066406 L 196.300781 174.066406 C 198.503906 174.066406 200.285156 172.28125 200.285156 170.082031 C 200.285156 167.878906 198.503906 166.09375 196.300781 166.09375 Z M 196.296875 166.09375 "/>
<path style=" stroke:none;fill-rule:nonzero;fill:rgb(69.803922%,0%,18.823529%);fill-opacity:1;" d="M 196.296875 180.914062 L 152.417969 180.914062 C 150.214844 180.914062 148.433594 182.699219 148.433594 184.898438 C 148.433594 187.101562 150.214844 188.882812 152.417969 188.882812 L 196.300781 188.882812 C 198.503906 188.882812 200.285156 187.101562 200.285156 184.898438 C 200.285156 182.699219 198.503906 180.914062 196.300781 180.914062 Z M 196.296875 180.914062 "/>
<path style=" stroke:none;fill-rule:nonzero;fill:rgb(69.803922%,0%,18.823529%);fill-opacity:1;" d="M 196.296875 195.738281 L 152.417969 195.738281 C 150.214844 195.738281 148.433594 197.523438 148.433594 199.722656 C 148.433594 201.925781 150.214844 203.707031 152.417969 203.707031 L 196.300781 203.707031 C 198.503906 203.707031 200.285156 201.925781 200.285156 199.722656 C 200.285156 197.523438 198.503906 195.738281 196.300781 195.738281 Z M 196.296875 195.738281 "/>
<path style=" stroke:none;fill-rule:nonzero;fill:rgb(69.803922%,0%,18.823529%);fill-opacity:1;" d="M 196.296875 210.558594 L 152.417969 210.558594 C 150.214844 210.558594 148.433594 212.339844 148.433594 214.542969 C 148.433594 216.742188 150.214844 218.527344 152.417969 218.527344 L 196.300781 218.527344 C 198.503906 218.527344 200.285156 216.742188 200.285156 214.542969 C 200.285156 212.339844 198.503906 210.558594 196.300781 210.558594 Z M 196.296875 210.558594 "/>
</g>
</svg>
