<?xml version="1.0" encoding="UTF-8"?>
<svg xmlns="http://www.w3.org/2000/svg" xmlns:xlink="http://www.w3.org/1999/xlink" width="336px" height="300px" viewBox="0 0 336 300" version="1.1">
<defs>
<clipPath id="clip1">
  <path d="M 0 0 L 334.164062 0 L 334.164062 298.558594 L 0 298.558594 Z M 0 0 "/>
</clipPath>
</defs>
<g id="surface1">
<g clip-path="url(#clip1)" clip-rule="nonzero">
<path style=" stroke:none;fill-rule:nonzero;fill:rgb(69.803922%,0%,18.823529%);fill-opacity:1;" d="M 328.199219 0 L 5.953125 0 C 3.472656 0.00390625 1.253906 1.542969 0.378906 3.867188 C -0.496094 6.1875 0.15625 8.8125 2.015625 10.453125 L 174.414062 163.789062 C 175.050781 165.253906 176.292969 166.367188 177.816406 166.835938 L 228.125 211.550781 C 228.425781 212.222656 228.851562 212.828125 229.375 213.339844 C 229.996094 213.90625 230.726562 214.332031 231.519531 214.597656 L 324.253906 297.058594 C 325.34375 298.015625 326.742188 298.546875 328.195312 298.546875 C 331.484375 298.53125 334.148438 295.867188 334.164062 292.578125 L 334.164062 5.972656 C 334.167969 2.675781 331.496094 0 328.199219 0 M 322.234375 279.269531 L 264.523438 227.984375 L 274.484375 217.351562 C 276.792969 214.976562 276.738281 211.179688 274.363281 208.871094 C 271.992188 206.5625 268.195312 206.617188 265.890625 208.992188 L 255.628906 219.851562 L 242.386719 207.929688 L 250.625 199.453125 C 252.167969 197.925781 252.769531 195.683594 252.191406 193.589844 C 251.613281 191.496094 249.949219 189.878906 247.84375 189.359375 C 245.734375 188.839844 243.511719 189.503906 242.027344 191.089844 L 233.433594 200.171875 L 210.816406 180.050781 L 220.78125 169.597656 C 223.089844 167.222656 223.035156 163.429688 220.664062 161.121094 C 218.292969 158.8125 214.5 158.867188 212.191406 161.238281 L 201.929688 172.101562 L 188.675781 160.148438 L 196.910156 151.671875 C 199.21875 149.296875 199.167969 145.5 196.796875 143.191406 C 194.421875 140.882812 190.628906 140.933594 188.320312 143.308594 L 179.730469 152.382812 L 150.78125 126.652344 L 161.121094 115.847656 C 163.429688 113.460938 163.367188 109.65625 160.984375 107.347656 C 158.601562 105.039062 154.800781 105.097656 152.492188 107.484375 L 141.894531 118.707031 L 128.648438 106.765625 L 137.238281 97.925781 C 139.542969 95.550781 139.492188 91.753906 137.117188 89.445312 C 134.746094 87.136719 130.953125 87.191406 128.648438 89.566406 L 119.695312 99 L 97.078125 78.878906 L 107.417969 68.074219 C 109.722656 65.699219 109.671875 61.90625 107.296875 59.597656 C 104.925781 57.289062 101.132812 57.339844 98.824219 59.714844 L 88.203125 70.941406 L 74.953125 58.996094 L 83.53125 50.171875 C 85.082031 48.652344 85.691406 46.40625 85.117188 44.308594 C 84.546875 42.210938 82.882812 40.585938 80.773438 40.066406 C 78.660156 39.546875 76.433594 40.210938 74.953125 41.804688 L 65.992188 51.238281 L 21.648438 11.925781 L 322.234375 11.925781 Z M 282.488281 192.15625 C 284.25 193.703125 286.75 194.074219 288.886719 193.109375 C 291.019531 192.144531 292.394531 190.019531 292.398438 187.675781 L 292.398438 59.714844 C 292.398438 56.417969 289.722656 53.742188 286.425781 53.742188 L 142.550781 53.742188 C 140.070312 53.742188 137.851562 55.28125 136.972656 57.605469 C 136.097656 59.925781 136.75 62.550781 138.613281 64.191406 Z M 280.457031 65.691406 L 280.457031 174.363281 L 158.246094 65.691406 Z M 280.457031 65.691406 "/>
</g>
</g>
</svg>
