<?xml version="1.0" encoding="UTF-8"?>
<svg xmlns="http://www.w3.org/2000/svg" xmlns:xlink="http://www.w3.org/1999/xlink" width="273px" height="300px" viewBox="0 0 273 299" version="1.1">
<g id="surface1">
<path style=" stroke:none;fill-rule:nonzero;fill:rgb(69.803922%,0%,18.823529%);fill-opacity:1;" d="M 162.230469 188.851562 C 173.109375 188.660156 183 190.453125 186.609375 201.773438 C 191.078125 212.601562 186.734375 225.058594 176.488281 230.78125 C 180.390625 238.238281 184.695312 245.484375 189.386719 252.480469 C 192.003906 255.152344 195.570312 256.6875 199.316406 256.75 C 212.773438 257.230469 226.257812 256.941406 241.105469 256.941406 L 241.105469 287.097656 L 273.652344 287.097656 C 273.894531 291.371094 274.085938 294.765625 274.332031 299.011719 L 0 299.011719 L 0 287.914062 L 33.023438 287.914062 L 33.023438 256.921875 C 47.207031 256.921875 59.921875 256.253906 72.515625 257.152344 C 79.875 258.429688 87.066406 254.15625 89.449219 247.097656 C 91.828125 241.820312 95.164062 236.953125 98.457031 231.269531 C 88.507812 225.09375 84.324219 212.757812 88.472656 201.824219 C 92.289062 190.613281 101.914062 188.617188 113.765625 188.796875 C 114.214844 183.710938 114.121094 178.59375 113.480469 173.527344 C 112.71875 169.691406 110.445312 166.320312 107.164062 164.171875 C 85.617188 154.664062 67.890625 138.214844 56.828125 117.464844 C 54.226562 113.222656 50.703125 109.613281 46.523438 106.902344 C 25.507812 93.285156 13.878906 69.101562 16.386719 44.230469 L 41.542969 42.902344 C 40.539062 35.046875 39.636719 27.949219 38.710938 20.867188 C 37.851562 14.132812 36.933594 7.40625 35.972656 0 L 238.339844 0 L 232.65625 43.542969 L 257.898438 43.542969 C 258.933594 71.347656 248.84375 91.992188 226.964844 107.191406 C 222.585938 110.214844 218.890625 114.125 216.128906 118.664062 C 206.691406 135.632812 192.761719 149.6875 175.859375 159.296875 C 159.667969 168.273438 159.652344 168.246094 162.230469 188.84375 M 49.152344 12.28125 C 53.578125 38.902344 58.527344 64.5625 61.945312 90.429688 C 65.109375 114.382812 78.136719 131.441406 97.097656 144.488281 C 137.242188 172.113281 196.125 151.609375 208.589844 104.296875 C 216.410156 74.5625 219.777344 43.664062 225.316406 12.28125 Z M 229.007812 269.226562 L 46.378906 269.226562 L 46.378906 286.910156 L 228.992188 286.910156 Z M 175.394531 256.46875 C 170.578125 237.214844 160.089844 228.386719 140.664062 231.800781 C 133.425781 232.304688 126.167969 232.425781 118.914062 232.152344 C 115.816406 232.148438 112.835938 233.335938 110.589844 235.46875 C 106.148438 241.800781 102.691406 248.816406 98.339844 256.472656 Z M 137.625 219.945312 L 137.625 219.980469 C 147.082031 219.980469 156.546875 219.980469 165.996094 219.980469 C 172.753906 219.980469 177.085938 216.167969 175.4375 209.898438 C 173.894531 205.621094 170.347656 202.371094 165.941406 201.199219 C 147.054688 200.351562 128.097656 200.347656 109.199219 201.199219 C 104.78125 202.394531 101.234375 205.679688 99.714844 209.984375 C 98.054688 216.328125 102.492188 219.945312 109.230469 219.945312 L 137.601562 219.945312 M 247.445312 59.046875 L 243.570312 54.578125 C 238.917969 56.179688 231.082031 56.777344 230.1875 59.585938 C 227.363281 70.203125 225.261719 81 223.898438 91.898438 L 228.148438 93.636719 L 247.449219 59.042969 M 28.167969 56.34375 C 30.074219 71.605469 38.195312 85.40625 50.621094 94.503906 C 48.003906 79.757812 45.9375 68.125 43.847656 56.328125 Z M 126.53125 188.40625 L 148.222656 188.40625 L 148.222656 170.035156 L 126.53125 170.035156 Z M 126.53125 188.40625 "/>
</g>
</svg>
